<?xml version="1.0" encoding="utf-8"?>
<!-- Generator: $$$/GeneralStr/196=Adobe Illustrator 27.6.0, SVG Export Plug-In . SVG Version: 6.00 Build 0)  -->
<svg version="1.1" id="Ebene_1" xmlns="http://www.w3.org/2000/svg" xmlns:xlink="http://www.w3.org/1999/xlink" x="0px" y="0px"
	 viewBox="0 0 644.8 123.5" style="enable-background:new 0 0 644.8 123.5;" xml:space="preserve">
<style type="text/css">
	.st0{fill:#3C3C3B;}
	.st1{fill:#00A7E7;}
	.st2{fill:#FFFFFF;}
	.st3{fill:#E30613;}
</style>
<rect class="st0" width="644.8" height="123.5"/>
<g>
	<g>
		<path class="st1" d="M101.2,95.8l-73.7-34l73.7-34l73.7,34L101.2,95.8z"/>
		<polygon class="st2" points="47.9,61.8 101.2,37.2 154.6,61.8 101.2,86.4 		"/>
	</g>
	<polygon class="st3" points="122.4,74.5 129,71.5 129,52.1 122.4,49.1 	"/>
	<path class="st3" d="M84.4,47.1l-12.2,5.6L63,66.6l6.3,2.9l2.2-3.8l9.1,1l1,8.4l7.4,3.4L84.4,47.1z M74,61.4l5-8.4l1,9L74,61.4z"/>
	<path class="st3" d="M116.4,77.3l-9.3-12.8c3-0.6,5.4-2.1,7.2-4.4c1.8-2.3,2.7-5,2.7-8.2c0-2.3-0.5-4.3-1.4-6l-14.4-6.6l-9.3,4.3
		V80l6.7,3.1V65.2h1.2l10.4,14.9L116.4,77.3z M98.7,59.4V45.2h2.4c6.2,0,9.3,2.3,9.3,6.9c0,4.9-3.2,7.3-9.6,7.3H98.7z"/>
</g>
<g>
	<g>
		<path class="st2" d="M204.1,55.4h-3.7V44.1l-10.7-16.3h4.4l8.3,13.1l8.1-13.1h4.2l-10.5,16.3V55.4z"/>
		<path class="st2" d="M212.4,41.3c0.4-1.3,1-2.4,1.9-3.3c0.8-0.9,1.8-1.7,3.1-2.2s2.6-0.8,4.2-0.8c1.6,0,3,0.3,4.2,0.8
			c1.2,0.5,2.2,1.3,3,2.2c0.8,0.9,1.4,2,1.9,3.3c0.4,1.3,0.6,2.6,0.6,4.1c0,1.5-0.2,2.8-0.6,4.1c-0.4,1.3-1,2.4-1.9,3.3
			c-0.8,0.9-1.8,1.7-3,2.2c-1.2,0.5-2.6,0.8-4.2,0.8c-1.6,0-3-0.3-4.2-0.8c-1.2-0.5-2.2-1.3-3.1-2.2c-0.8-0.9-1.4-2-1.9-3.3
			c-0.4-1.3-0.6-2.6-0.6-4.1C211.8,44,212,42.6,212.4,41.3z M215.8,48.6c0.3,0.9,0.8,1.7,1.3,2.4s1.2,1.1,2,1.4
			c0.8,0.3,1.6,0.5,2.4,0.5c0.9,0,1.7-0.2,2.4-0.5c0.8-0.3,1.4-0.8,2-1.4c0.6-0.6,1-1.4,1.3-2.4c0.3-0.9,0.5-2,0.5-3.2
			c0-1.2-0.2-2.3-0.5-3.2c-0.3-0.9-0.8-1.7-1.3-2.4c-0.6-0.6-1.2-1.1-2-1.5c-0.8-0.3-1.6-0.5-2.4-0.5c-0.8,0-1.7,0.2-2.4,0.5
			c-0.8,0.3-1.4,0.8-2,1.5s-1,1.4-1.3,2.4c-0.3,0.9-0.5,2-0.5,3.2C215.3,46.6,215.4,47.7,215.8,48.6z"/>
		<path class="st2" d="M248.5,55.4v-3.2h-0.1c-0.7,1.2-1.6,2.1-2.7,2.7c-1.1,0.6-2.4,0.9-3.8,0.9c-1.3,0-2.4-0.2-3.3-0.5
			c-0.9-0.3-1.6-0.8-2.1-1.5c-0.5-0.6-0.9-1.4-1.1-2.3c-0.2-0.9-0.3-1.9-0.3-3V35.4h3.3v13.5c0,1.2,0.4,2.2,1.1,2.9
			c0.7,0.7,1.7,1.1,3,1.1c1,0,1.9-0.2,2.6-0.5c0.7-0.3,1.3-0.7,1.8-1.3s0.9-1.2,1.1-2c0.2-0.8,0.4-1.6,0.4-2.5V35.4h3.3v20H248.5z"
			/>
		<path class="st2" d="M259.5,35.4v4.2h0.1c0.8-1.6,1.8-2.8,2.9-3.6c1.2-0.8,2.6-1.1,4.4-1.1v3.5c-1.3,0-2.4,0.2-3.4,0.5
			c-0.9,0.4-1.7,0.9-2.2,1.6c-0.6,0.7-1,1.5-1.2,2.5c-0.3,1-0.4,2.1-0.4,3.4v8.9h-3.3v-20H259.5z"/>
		<path class="st2" d="M285.6,55.4l-7.4-20h3.7l5.6,16.7h0.1l5.4-16.7h3.4l-7.3,20H285.6z"/>
		<path class="st2" d="M317.1,55.3c-0.6,0.3-1.4,0.5-2.4,0.5c-0.9,0-1.5-0.2-2-0.7c-0.5-0.5-0.8-1.3-0.8-2.3c-0.9,1.1-2,1.9-3.1,2.3
			c-1.2,0.5-2.5,0.7-3.9,0.7c-0.9,0-1.8-0.1-2.6-0.3c-0.8-0.2-1.5-0.5-2.1-1c-0.6-0.4-1.1-1-1.4-1.7c-0.3-0.7-0.5-1.6-0.5-2.6
			c0-1.1,0.2-2.1,0.6-2.8c0.4-0.7,0.9-1.3,1.5-1.8c0.6-0.5,1.4-0.8,2.2-1c0.8-0.2,1.6-0.4,2.5-0.6c0.9-0.2,1.8-0.3,2.6-0.4
			c0.8-0.1,1.5-0.2,2.1-0.4c0.6-0.2,1.1-0.4,1.5-0.7c0.4-0.3,0.5-0.8,0.5-1.4c0-0.7-0.1-1.3-0.4-1.7c-0.3-0.4-0.6-0.8-1-1
			c-0.4-0.2-0.9-0.4-1.4-0.5c-0.5-0.1-1.1-0.1-1.6-0.1c-1.4,0-2.5,0.3-3.5,0.8c-0.9,0.5-1.4,1.5-1.5,3h-3.3c0.1-1.2,0.3-2.3,0.8-3.1
			c0.5-0.8,1.1-1.5,1.9-2.1c0.8-0.5,1.7-0.9,2.6-1.1c1-0.2,2.1-0.3,3.2-0.3c0.9,0,1.8,0.1,2.7,0.2c0.9,0.1,1.7,0.4,2.4,0.8
			c0.7,0.4,1.3,1,1.7,1.7c0.4,0.7,0.7,1.7,0.7,2.8v10.3c0,0.8,0,1.3,0.1,1.7c0.1,0.4,0.4,0.5,0.9,0.5c0.3,0,0.6-0.1,1-0.2V55.3z
			 M311.8,45.1c-0.4,0.3-1,0.5-1.6,0.7s-1.4,0.3-2.1,0.3c-0.7,0.1-1.5,0.2-2.2,0.3c-0.7,0.1-1.4,0.3-2,0.6c-0.6,0.3-1.1,0.6-1.4,1.1
			c-0.4,0.5-0.6,1.1-0.6,1.9c0,0.5,0.1,1,0.3,1.4c0.2,0.4,0.5,0.7,0.9,0.9c0.3,0.2,0.8,0.4,1.2,0.5c0.5,0.1,1,0.2,1.5,0.2
			c1.1,0,2-0.1,2.8-0.4c0.8-0.3,1.4-0.7,1.9-1.1c0.5-0.4,0.8-0.9,1.1-1.5c0.2-0.5,0.3-1,0.3-1.5V45.1z"/>
		<path class="st2" d="M323.7,27.8v27.6h-3.3V27.8H323.7z"/>
		<path class="st2" d="M334.3,55.4l-7.4-20h3.7l5.6,16.7h0.1l5.4-16.7h3.4l-7.3,20H334.3z"/>
		<path class="st2" d="M362.2,54.1c-1.5,1.1-3.4,1.7-5.6,1.7c-1.6,0-3-0.3-4.2-0.8c-1.2-0.5-2.2-1.2-3-2.2c-0.8-0.9-1.4-2-1.8-3.3
			c-0.4-1.3-0.6-2.7-0.7-4.2c0-1.5,0.2-2.9,0.7-4.2c0.5-1.3,1.1-2.4,2-3.3c0.8-0.9,1.8-1.6,3-2.2c1.1-0.5,2.4-0.8,3.8-0.8
			c1.8,0,3.3,0.4,4.4,1.1c1.2,0.7,2.1,1.7,2.8,2.8c0.7,1.1,1.2,2.4,1.5,3.7c0.3,1.3,0.4,2.6,0.3,3.8h-14.9c0,0.9,0.1,1.7,0.3,2.5
			c0.2,0.8,0.6,1.5,1.1,2.1c0.5,0.6,1.2,1.1,2,1.4c0.8,0.4,1.7,0.5,2.8,0.5c1.4,0,2.5-0.3,3.4-1c0.9-0.6,1.5-1.6,1.8-2.9h3.2
			C364.7,51.3,363.7,53,362.2,54.1z M361.4,41.3c-0.3-0.7-0.7-1.3-1.2-1.8c-0.5-0.5-1.1-0.9-1.8-1.2c-0.7-0.3-1.4-0.4-2.3-0.4
			c-0.9,0-1.6,0.1-2.3,0.4c-0.7,0.3-1.3,0.7-1.8,1.2c-0.5,0.5-0.9,1.1-1.2,1.8c-0.3,0.7-0.5,1.4-0.5,2.2H362
			C361.9,42.7,361.7,42,361.4,41.3z"/>
		<path class="st2" d="M382.7,35.4v2.9h0.1c1.5-2.3,3.6-3.4,6.5-3.4c1.2,0,2.4,0.3,3.4,0.8c1,0.5,1.7,1.4,2.1,2.6
			c0.7-1.1,1.6-1.9,2.6-2.5c1.1-0.6,2.3-0.9,3.6-0.9c1,0,1.9,0.1,2.7,0.3c0.8,0.2,1.5,0.6,2.1,1c0.6,0.5,1,1.1,1.4,1.8
			c0.3,0.7,0.5,1.6,0.5,2.6v14.6h-3.3V42.3c0-0.6-0.1-1.2-0.2-1.7c-0.1-0.5-0.3-1-0.6-1.4c-0.3-0.4-0.7-0.7-1.2-0.9
			c-0.5-0.2-1.2-0.3-1.9-0.3c-1.6,0-2.9,0.5-3.8,1.4c-0.9,0.9-1.4,2.2-1.4,3.7v12.4h-3.3V42.3c0-0.6-0.1-1.2-0.2-1.8
			c-0.1-0.5-0.3-1-0.6-1.4c-0.3-0.4-0.7-0.7-1.1-0.9c-0.5-0.2-1.1-0.3-1.8-0.3c-1,0-1.8,0.2-2.5,0.6c-0.7,0.4-1.2,0.8-1.7,1.4
			s-0.7,1.1-0.9,1.7c-0.2,0.6-0.3,1.1-0.3,1.4v12.4h-3.3v-20H382.7z"/>
		<path class="st2" d="M430.2,55.3c-0.6,0.3-1.4,0.5-2.4,0.5c-0.9,0-1.5-0.2-2-0.7c-0.5-0.5-0.8-1.3-0.8-2.3c-0.9,1.1-2,1.9-3.1,2.3
			c-1.2,0.5-2.5,0.7-3.9,0.7c-0.9,0-1.8-0.1-2.6-0.3c-0.8-0.2-1.5-0.5-2.1-1c-0.6-0.4-1.1-1-1.4-1.7c-0.3-0.7-0.5-1.6-0.5-2.6
			c0-1.1,0.2-2.1,0.6-2.8c0.4-0.7,0.9-1.3,1.5-1.8c0.6-0.5,1.4-0.8,2.2-1c0.8-0.2,1.6-0.4,2.5-0.6c0.9-0.2,1.8-0.3,2.6-0.4
			c0.8-0.1,1.5-0.2,2.1-0.4c0.6-0.2,1.1-0.4,1.5-0.7c0.4-0.3,0.5-0.8,0.5-1.4c0-0.7-0.1-1.3-0.4-1.7c-0.3-0.4-0.6-0.8-1-1
			c-0.4-0.2-0.9-0.4-1.4-0.5c-0.5-0.1-1.1-0.1-1.6-0.1c-1.4,0-2.5,0.3-3.5,0.8c-0.9,0.5-1.4,1.5-1.5,3h-3.3c0.1-1.2,0.3-2.3,0.8-3.1
			c0.5-0.8,1.1-1.5,1.9-2.1c0.8-0.5,1.7-0.9,2.6-1.1c1-0.2,2.1-0.3,3.2-0.3c0.9,0,1.8,0.1,2.7,0.2c0.9,0.1,1.7,0.4,2.4,0.8
			c0.7,0.4,1.3,1,1.7,1.7c0.4,0.7,0.7,1.7,0.7,2.8v10.3c0,0.8,0,1.3,0.1,1.7c0.1,0.4,0.4,0.5,0.9,0.5c0.3,0,0.6-0.1,1-0.2V55.3z
			 M424.9,45.1c-0.4,0.3-1,0.5-1.6,0.7c-0.7,0.1-1.4,0.3-2.1,0.3s-1.5,0.2-2.2,0.3c-0.7,0.1-1.4,0.3-2,0.6c-0.6,0.3-1.1,0.6-1.4,1.1
			c-0.4,0.5-0.6,1.1-0.6,1.9c0,0.5,0.1,1,0.3,1.4c0.2,0.4,0.5,0.7,0.9,0.9c0.3,0.2,0.8,0.4,1.2,0.5c0.5,0.1,1,0.2,1.5,0.2
			c1.1,0,2-0.1,2.8-0.4c0.8-0.3,1.4-0.7,1.9-1.1c0.5-0.4,0.8-0.9,1.1-1.5c0.2-0.5,0.3-1,0.3-1.5V45.1z"/>
		<path class="st2" d="M447.8,55.4v-2.7h-0.1c-0.5,1.1-1.4,1.9-2.5,2.4c-1.2,0.5-2.4,0.7-3.8,0.7c-1.5,0-2.9-0.3-4-0.8
			c-1.1-0.6-2.1-1.3-2.9-2.3c-0.8-1-1.3-2.1-1.7-3.3c-0.4-1.3-0.6-2.6-0.6-4c0-1.4,0.2-2.8,0.6-4c0.4-1.3,0.9-2.4,1.7-3.3
			c0.8-0.9,1.7-1.7,2.9-2.2c1.1-0.6,2.5-0.8,4-0.8c0.5,0,1.1,0.1,1.7,0.2c0.6,0.1,1.2,0.3,1.8,0.5c0.6,0.2,1.2,0.6,1.7,1
			c0.5,0.4,1,0.9,1.3,1.5h0.1V27.8h3.3v27.6H447.8z M436,48.3c0.2,0.9,0.6,1.7,1.1,2.4c0.5,0.7,1.1,1.2,1.9,1.7
			c0.8,0.4,1.7,0.6,2.8,0.6c1.1,0,2-0.2,2.8-0.7c0.8-0.4,1.4-1,1.9-1.7c0.5-0.7,0.8-1.5,1.1-2.4c0.2-0.9,0.3-1.8,0.3-2.7
			c0-1-0.1-1.9-0.3-2.8c-0.2-0.9-0.6-1.7-1.1-2.4c-0.5-0.7-1.2-1.3-2-1.7c-0.8-0.4-1.8-0.6-2.9-0.6c-1.1,0-2,0.2-2.8,0.7
			c-0.8,0.4-1.4,1-1.9,1.7c-0.5,0.7-0.8,1.5-1,2.5c-0.2,0.9-0.3,1.9-0.3,2.9C435.7,46.5,435.8,47.4,436,48.3z"/>
		<path class="st2" d="M470.3,54.1c-1.5,1.1-3.4,1.7-5.6,1.7c-1.6,0-3-0.3-4.2-0.8c-1.2-0.5-2.2-1.2-3-2.2c-0.8-0.9-1.4-2-1.8-3.3
			c-0.4-1.3-0.6-2.7-0.7-4.2c0-1.5,0.2-2.9,0.7-4.2c0.5-1.3,1.1-2.4,2-3.3c0.8-0.9,1.8-1.6,3-2.2c1.1-0.5,2.4-0.8,3.8-0.8
			c1.8,0,3.3,0.4,4.4,1.1c1.2,0.7,2.1,1.7,2.8,2.8c0.7,1.1,1.2,2.4,1.5,3.7c0.3,1.3,0.4,2.6,0.3,3.8h-14.9c0,0.9,0.1,1.7,0.3,2.5
			c0.2,0.8,0.6,1.5,1.1,2.1c0.5,0.6,1.2,1.1,2,1.4c0.8,0.4,1.7,0.5,2.8,0.5c1.4,0,2.5-0.3,3.4-1c0.9-0.6,1.5-1.6,1.8-2.9h3.2
			C472.8,51.3,471.8,53,470.3,54.1z M469.5,41.3c-0.3-0.7-0.7-1.3-1.2-1.8c-0.5-0.5-1.1-0.9-1.8-1.2c-0.7-0.3-1.4-0.4-2.3-0.4
			c-0.9,0-1.6,0.1-2.3,0.4c-0.7,0.3-1.3,0.7-1.8,1.2c-0.5,0.5-0.9,1.1-1.2,1.8c-0.3,0.7-0.5,1.4-0.5,2.2H470
			C470,42.7,469.8,42,469.5,41.3z"/>
		<path class="st2" d="M491.1,27.8v10.3h0.1c0.5-1.1,1.4-1.9,2.6-2.4c1.2-0.5,2.4-0.8,3.8-0.8c1.5,0,2.9,0.3,4,0.8
			c1.1,0.6,2.1,1.3,2.9,2.3c0.8,1,1.3,2.1,1.7,3.3c0.4,1.3,0.6,2.6,0.6,4c0,1.4-0.2,2.8-0.6,4c-0.4,1.3-0.9,2.4-1.7,3.3
			c-0.8,0.9-1.7,1.7-2.9,2.2c-1.1,0.5-2.5,0.8-4,0.8c-0.5,0-1-0.1-1.6-0.2c-0.6-0.1-1.2-0.3-1.8-0.5c-0.6-0.2-1.2-0.5-1.7-0.9
			c-0.5-0.4-1-0.9-1.3-1.5h-0.1v2.7h-3.3V27.8H491.1z M502.9,42.5c-0.2-0.9-0.6-1.7-1.1-2.4c-0.5-0.7-1.1-1.2-1.9-1.7
			c-0.8-0.4-1.7-0.6-2.8-0.6c-1.1,0-2,0.2-2.8,0.7c-0.8,0.4-1.4,1-1.9,1.7c-0.5,0.7-0.8,1.5-1.1,2.4c-0.2,0.9-0.3,1.8-0.3,2.7
			c0,1,0.1,1.9,0.3,2.8c0.2,0.9,0.6,1.7,1.1,2.4c0.5,0.7,1.2,1.3,2,1.7c0.8,0.4,1.8,0.6,2.9,0.6c1.1,0,2.1-0.2,2.8-0.7
			c0.8-0.4,1.4-1,1.8-1.7c0.5-0.7,0.8-1.5,1-2.5c0.2-0.9,0.3-1.9,0.3-2.9C503.2,44.3,503.1,43.4,502.9,42.5z"/>
		<path class="st2" d="M518.4,58.1c-0.4,1-0.8,1.8-1.1,2.5c-0.4,0.7-0.8,1.2-1.2,1.6c-0.5,0.4-1,0.7-1.5,0.9
			c-0.6,0.2-1.2,0.3-1.9,0.3c-0.4,0-0.8,0-1.2-0.1c-0.4-0.1-0.8-0.1-1.1-0.3v-3c0.3,0.1,0.6,0.2,1,0.3c0.4,0.1,0.7,0.1,0.9,0.1
			c0.7,0,1.2-0.2,1.7-0.5c0.4-0.3,0.8-0.8,1-1.4l1.4-3.4l-7.9-19.9h3.7l5.8,16.3h0.1l5.6-16.3h3.5L518.4,58.1z"/>
		<path class="st2" d="M552.7,27.8l10.8,27.6h-4.1l-3-8.3h-11.7l-3.1,8.3h-3.7l10.7-27.6H552.7z M555.3,44l-4.6-12.9h-0.1L545.9,44
			H555.3z"/>
		<path class="st2" d="M579.2,27.8c2.6,0,4.7,0.6,6.2,1.9c1.5,1.3,2.2,3.1,2.2,5.3c0,1.7-0.4,3.1-1.1,4.4c-0.8,1.3-2,2.1-3.6,2.6
			v0.1c0.8,0.2,1.4,0.4,1.9,0.8c0.5,0.4,0.9,0.8,1.2,1.3c0.3,0.5,0.5,1.1,0.7,1.7c0.1,0.6,0.3,1.3,0.3,1.9c0.1,0.7,0.1,1.4,0.1,2
			c0,0.7,0.1,1.4,0.2,2c0.1,0.7,0.3,1.3,0.4,1.9s0.5,1.1,0.9,1.6h-4.1c-0.3-0.3-0.4-0.7-0.5-1.2c-0.1-0.5-0.1-1-0.2-1.6
			c0-0.6-0.1-1.3-0.1-2c0-0.7-0.1-1.4-0.2-2c-0.1-0.7-0.2-1.3-0.4-1.9c-0.2-0.6-0.4-1.1-0.7-1.6c-0.3-0.4-0.8-0.8-1.3-1.1
			c-0.5-0.3-1.3-0.4-2.2-0.4h-9v11.8h-3.7V27.8H579.2z M579.9,40.3c0.8-0.1,1.4-0.4,2-0.8c0.6-0.4,1-0.9,1.4-1.5s0.5-1.4,0.5-2.5
			c0-1.4-0.4-2.5-1.2-3.4c-0.8-0.9-2-1.3-3.7-1.3h-9.1v9.6h7.7C578.4,40.5,579.2,40.5,579.9,40.3z"/>
		<path class="st2" d="M596.5,27.8v27.6h-3.7V27.8H596.5z"/>
		<path class="st2" d="M600.9,32.9c0.5-1,1.1-1.9,1.8-2.7c0.8-0.8,1.7-1.3,2.7-1.8c1-0.4,2.1-0.6,3.3-0.6c1.2,0,2.2,0.2,3.3,0.6
			c1,0.4,1.9,1,2.7,1.8c0.8,0.8,1.4,1.6,1.8,2.7c0.4,1,0.7,2.1,0.7,3.3c0,1.2-0.2,2.3-0.7,3.4c-0.5,1-1.1,1.9-1.8,2.7
			c-0.8,0.8-1.7,1.3-2.7,1.8s-2.1,0.6-3.3,0.6c-1.2,0-2.2-0.2-3.3-0.6c-1-0.4-1.9-1-2.7-1.8c-0.8-0.8-1.4-1.7-1.8-2.7
			c-0.4-1-0.7-2.2-0.7-3.4C600.2,35,600.4,33.9,600.9,32.9z M602.2,39.1c0.4,0.9,0.8,1.6,1.5,2.3c0.6,0.6,1.4,1.2,2.2,1.5
			c0.8,0.4,1.8,0.6,2.8,0.6c1,0,1.9-0.2,2.7-0.6c0.8-0.4,1.6-0.9,2.2-1.5c0.6-0.6,1.1-1.4,1.5-2.3c0.4-0.9,0.5-1.8,0.5-2.9
			c0-1-0.2-1.9-0.5-2.8c-0.4-0.9-0.8-1.6-1.5-2.3c-0.6-0.6-1.4-1.1-2.2-1.5c-0.8-0.4-1.8-0.6-2.7-0.6c-1,0-1.9,0.2-2.8,0.6
			c-0.8,0.4-1.6,0.9-2.2,1.5c-0.6,0.6-1.1,1.4-1.5,2.3c-0.4,0.9-0.5,1.8-0.5,2.8C601.7,37.2,601.9,38.2,602.2,39.1z M609.2,31.3
			c1.2,0,2,0.2,2.6,0.7c0.6,0.5,0.8,1.2,0.8,2.1c0,0.9-0.2,1.5-0.7,1.9c-0.5,0.4-1.1,0.7-1.8,0.7l2.8,4.3h-1.6l-2.7-4.2h-1.6v4.2
			h-1.5v-9.8H609.2z M608.5,35.7c0.3,0,0.7,0,1,0c0.3,0,0.6-0.1,0.8-0.2c0.2-0.1,0.4-0.3,0.6-0.5c0.1-0.2,0.2-0.5,0.2-0.9
			c0-0.3-0.1-0.6-0.2-0.8c-0.1-0.2-0.3-0.3-0.5-0.5c-0.2-0.1-0.4-0.2-0.7-0.2c-0.3,0-0.5-0.1-0.8-0.1h-2v3.1H608.5z"/>
	</g>
	<path class="st2" d="M209.9,95.3c-0.5,0.3-1.2,0.4-2,0.4c-0.7,0-1.3-0.2-1.7-0.6c-0.4-0.4-0.7-1.1-0.7-2c-0.8,0.9-1.7,1.6-2.7,2
		c-1,0.4-2.1,0.6-3.3,0.6c-0.8,0-1.5-0.1-2.2-0.3s-1.3-0.5-1.8-0.8c-0.5-0.4-0.9-0.9-1.2-1.5c-0.3-0.6-0.4-1.3-0.4-2.2
		c0-1,0.2-1.8,0.5-2.4c0.3-0.6,0.8-1.1,1.3-1.5c0.5-0.4,1.2-0.7,1.9-0.9c0.7-0.2,1.4-0.4,2.1-0.5c0.8-0.2,1.5-0.3,2.2-0.3
		c0.7-0.1,1.3-0.2,1.8-0.3c0.5-0.1,1-0.4,1.3-0.6c0.3-0.3,0.5-0.7,0.5-1.2c0-0.6-0.1-1.1-0.3-1.5c-0.2-0.4-0.5-0.7-0.9-0.9
		c-0.4-0.2-0.8-0.3-1.2-0.4c-0.5-0.1-0.9-0.1-1.3-0.1c-1.2,0-2.2,0.2-3,0.7c-0.8,0.5-1.2,1.3-1.3,2.6h-2.8c0-1.1,0.3-2,0.7-2.7
		c0.4-0.7,0.9-1.3,1.6-1.8c0.7-0.5,1.4-0.8,2.3-1c0.9-0.2,1.8-0.3,2.7-0.3c0.8,0,1.6,0.1,2.3,0.2s1.5,0.3,2.1,0.7
		c0.6,0.3,1.1,0.8,1.5,1.4c0.4,0.6,0.6,1.4,0.6,2.4v8.8c0,0.7,0,1.2,0.1,1.5c0.1,0.3,0.3,0.5,0.8,0.5c0.2,0,0.5,0,0.9-0.1V95.3z
		 M205.3,86.5c-0.4,0.3-0.8,0.5-1.4,0.6c-0.6,0.1-1.2,0.2-1.8,0.3c-0.6,0.1-1.3,0.2-1.9,0.3c-0.6,0.1-1.2,0.3-1.7,0.5
		c-0.5,0.2-0.9,0.5-1.3,0.9s-0.5,1-0.5,1.7c0,0.5,0.1,0.9,0.3,1.2c0.2,0.3,0.4,0.6,0.7,0.8c0.3,0.2,0.6,0.3,1,0.4
		c0.4,0.1,0.8,0.1,1.3,0.1c0.9,0,1.7-0.1,2.4-0.4c0.7-0.3,1.2-0.6,1.6-1c0.4-0.4,0.7-0.8,0.9-1.3c0.2-0.5,0.3-0.9,0.3-1.3V86.5z"/>
	<path class="st2" d="M215.1,78.2v3.6h0.1c0.7-1.4,1.5-2.4,2.5-3.1c1-0.7,2.3-1,3.8-0.9v3c-1.1,0-2.1,0.2-2.9,0.5
		c-0.8,0.3-1.4,0.8-1.9,1.4c-0.5,0.6-0.8,1.3-1.1,2.2c-0.2,0.9-0.3,1.8-0.3,2.9v7.7h-2.8V78.2H215.1z"/>
	<path class="st2" d="M223.8,75.1v-3.5h2.8v3.5H223.8z M226.6,78.2v17.2h-2.8V78.2H226.6z"/>
	<path class="st2" d="M240.2,84.8v2.7h-9.6v-2.7H240.2z"/>
	<path class="st2" d="M259.2,95.3c-0.5,0.3-1.2,0.4-2,0.4c-0.7,0-1.3-0.2-1.7-0.6c-0.4-0.4-0.7-1.1-0.7-2c-0.8,0.9-1.7,1.6-2.7,2
		c-1,0.4-2.1,0.6-3.3,0.6c-0.8,0-1.5-0.1-2.2-0.3c-0.7-0.2-1.3-0.5-1.8-0.8c-0.5-0.4-0.9-0.9-1.2-1.5c-0.3-0.6-0.4-1.3-0.4-2.2
		c0-1,0.2-1.8,0.5-2.4c0.3-0.6,0.8-1.1,1.3-1.5c0.5-0.4,1.2-0.7,1.9-0.9c0.7-0.2,1.4-0.4,2.1-0.5c0.8-0.2,1.5-0.3,2.2-0.3
		c0.7-0.1,1.3-0.2,1.8-0.3c0.5-0.1,1-0.4,1.3-0.6c0.3-0.3,0.5-0.7,0.5-1.2c0-0.6-0.1-1.1-0.3-1.5c-0.2-0.4-0.5-0.7-0.9-0.9
		c-0.4-0.2-0.8-0.3-1.2-0.4s-0.9-0.1-1.3-0.1c-1.2,0-2.2,0.2-3,0.7c-0.8,0.5-1.2,1.3-1.3,2.6h-2.8c0-1.1,0.3-2,0.7-2.7
		c0.4-0.7,0.9-1.3,1.6-1.8c0.7-0.5,1.4-0.8,2.3-1c0.9-0.2,1.8-0.3,2.7-0.3c0.8,0,1.6,0.1,2.3,0.2c0.8,0.1,1.5,0.3,2.1,0.7
		c0.6,0.3,1.1,0.8,1.5,1.4c0.4,0.6,0.6,1.4,0.6,2.4v8.8c0,0.7,0,1.2,0.1,1.5c0.1,0.3,0.3,0.5,0.8,0.5c0.2,0,0.5,0,0.9-0.1V95.3z
		 M254.6,86.5c-0.4,0.3-0.8,0.5-1.4,0.6c-0.6,0.1-1.2,0.2-1.8,0.3c-0.6,0.1-1.3,0.2-1.9,0.3c-0.6,0.1-1.2,0.3-1.7,0.5
		c-0.5,0.2-0.9,0.5-1.3,0.9s-0.5,1-0.5,1.7c0,0.5,0.1,0.9,0.3,1.2c0.2,0.3,0.4,0.6,0.7,0.8c0.3,0.2,0.6,0.3,1,0.4
		c0.4,0.1,0.8,0.1,1.3,0.1c0.9,0,1.7-0.1,2.4-0.4c0.7-0.3,1.2-0.6,1.6-1s0.7-0.8,0.9-1.3c0.2-0.5,0.3-0.9,0.3-1.3V86.5z"/>
	<path class="st2" d="M264.4,78.2v3.6h0.1c0.7-1.4,1.5-2.4,2.5-3.1c1-0.7,2.3-1,3.8-0.9v3c-1.1,0-2.1,0.2-2.9,0.5
		c-0.8,0.3-1.4,0.8-1.9,1.4c-0.5,0.6-0.8,1.3-1.1,2.2c-0.2,0.9-0.3,1.8-0.3,2.9v7.7h-2.8V78.2H264.4z"/>
	<path class="st2" d="M275.6,78.2v2.5h0.1c1.3-2,3.1-2.9,5.6-2.9c1.1,0,2,0.2,2.9,0.7c0.9,0.4,1.5,1.2,1.8,2.3
		c0.6-0.9,1.3-1.7,2.3-2.2c0.9-0.5,2-0.8,3.1-0.8c0.9,0,1.6,0.1,2.3,0.3c0.7,0.2,1.3,0.5,1.8,0.9c0.5,0.4,0.9,0.9,1.2,1.5
		c0.3,0.6,0.4,1.4,0.4,2.3v12.6h-2.8V84.1c0-0.5,0-1-0.1-1.5c-0.1-0.5-0.3-0.9-0.5-1.2c-0.2-0.3-0.6-0.6-1-0.8
		c-0.4-0.2-1-0.3-1.7-0.3c-1.4,0-2.5,0.4-3.3,1.2c-0.8,0.8-1.2,1.9-1.2,3.2v10.7h-2.8V84.1c0-0.6-0.1-1.1-0.2-1.5
		c-0.1-0.5-0.3-0.9-0.5-1.2c-0.2-0.3-0.6-0.6-1-0.8c-0.4-0.2-0.9-0.3-1.6-0.3c-0.8,0-1.5,0.2-2.1,0.5c-0.6,0.3-1.1,0.7-1.4,1.2
		c-0.4,0.5-0.6,1-0.8,1.4c-0.2,0.5-0.3,0.9-0.3,1.3v10.7H273V78.2H275.6z"/>
	<path class="st2" d="M316.7,95.3c-0.5,0.3-1.2,0.4-2,0.4c-0.7,0-1.3-0.2-1.7-0.6c-0.4-0.4-0.7-1.1-0.7-2c-0.8,0.9-1.7,1.6-2.7,2
		c-1,0.4-2.1,0.6-3.3,0.6c-0.8,0-1.5-0.1-2.2-0.3s-1.3-0.5-1.8-0.8c-0.5-0.4-0.9-0.9-1.2-1.5c-0.3-0.6-0.4-1.3-0.4-2.2
		c0-1,0.2-1.8,0.5-2.4c0.3-0.6,0.8-1.1,1.3-1.5c0.5-0.4,1.2-0.7,1.9-0.9c0.7-0.2,1.4-0.4,2.1-0.5c0.8-0.2,1.5-0.3,2.2-0.3
		c0.7-0.1,1.3-0.2,1.8-0.3c0.5-0.1,1-0.4,1.3-0.6c0.3-0.3,0.5-0.7,0.5-1.2c0-0.6-0.1-1.1-0.3-1.5c-0.2-0.4-0.5-0.7-0.9-0.9
		c-0.4-0.2-0.8-0.3-1.2-0.4s-0.9-0.1-1.3-0.1c-1.2,0-2.2,0.2-3,0.7c-0.8,0.5-1.2,1.3-1.3,2.6h-2.8c0-1.1,0.3-2,0.7-2.7
		c0.4-0.7,0.9-1.3,1.6-1.8c0.7-0.5,1.4-0.8,2.3-1c0.9-0.2,1.8-0.3,2.7-0.3c0.8,0,1.6,0.1,2.3,0.2c0.8,0.1,1.5,0.3,2.1,0.7
		c0.6,0.3,1.1,0.8,1.5,1.4c0.4,0.6,0.6,1.4,0.6,2.4v8.8c0,0.7,0,1.2,0.1,1.5c0.1,0.3,0.3,0.5,0.8,0.5c0.2,0,0.5,0,0.9-0.1V95.3z
		 M312.1,86.5c-0.4,0.3-0.8,0.5-1.4,0.6c-0.6,0.1-1.2,0.2-1.8,0.3c-0.6,0.1-1.3,0.2-1.9,0.3c-0.6,0.1-1.2,0.3-1.7,0.5
		c-0.5,0.2-0.9,0.5-1.3,0.9s-0.5,1-0.5,1.7c0,0.5,0.1,0.9,0.3,1.2c0.2,0.3,0.4,0.6,0.7,0.8c0.3,0.2,0.6,0.3,1,0.4
		c0.4,0.1,0.8,0.1,1.3,0.1c0.9,0,1.7-0.1,2.4-0.4c0.7-0.3,1.2-0.6,1.6-1s0.7-0.8,0.9-1.3c0.2-0.5,0.3-0.9,0.3-1.3V86.5z"/>
	<path class="st2" d="M326.7,78.2v2.5h-3.4v10.7c0,0.3,0,0.6,0.1,0.8c0.1,0.2,0.2,0.4,0.3,0.5c0.2,0.1,0.4,0.2,0.7,0.2
		c0.3,0,0.6,0.1,1.1,0.1h1.3v2.5h-2.2c-0.7,0-1.4-0.1-1.9-0.2c-0.5-0.1-0.9-0.3-1.3-0.5c-0.3-0.3-0.6-0.6-0.7-1.1
		c-0.2-0.5-0.2-1.1-0.2-1.9v-11h-2.9v-2.5h2.9V73h2.8v5.2H326.7z"/>
	<path class="st2" d="M341.4,95.4v-2.7h-0.1c-0.6,1.1-1.4,1.9-2.3,2.4c-0.9,0.5-2,0.8-3.3,0.8c-1.1,0-2.1-0.2-2.8-0.5
		c-0.8-0.3-1.4-0.7-1.8-1.3c-0.5-0.6-0.8-1.2-1-2c-0.2-0.8-0.3-1.6-0.3-2.5V78.2h2.8v11.7c0,1.1,0.3,1.9,0.9,2.5
		c0.6,0.6,1.5,0.9,2.6,0.9c0.9,0,1.6-0.1,2.3-0.4c0.6-0.3,1.2-0.6,1.6-1.1c0.4-0.5,0.7-1.1,0.9-1.7c0.2-0.7,0.3-1.4,0.3-2.2v-9.7
		h2.8v17.2H341.4z"/>
	<path class="st2" d="M350.9,78.2v3.6h0.1c0.7-1.4,1.5-2.4,2.5-3.1c1-0.7,2.3-1,3.8-0.9v3c-1.1,0-2.1,0.2-2.9,0.5
		c-0.8,0.3-1.4,0.8-1.9,1.4c-0.5,0.6-0.8,1.3-1.1,2.2c-0.2,0.9-0.3,1.8-0.3,2.9v7.7h-2.8V78.2H350.9z"/>
	<path class="st2" d="M371,94.3c-1.3,1-2.9,1.5-4.9,1.5c-1.4,0-2.6-0.2-3.6-0.7c-1-0.4-1.9-1.1-2.5-1.9c-0.7-0.8-1.2-1.8-1.6-2.9
		c-0.3-1.1-0.5-2.3-0.6-3.6c0-1.3,0.2-2.5,0.6-3.6c0.4-1.1,1-2,1.7-2.8c0.7-0.8,1.6-1.4,2.6-1.9c1-0.4,2.1-0.7,3.2-0.7
		c1.5,0,2.8,0.3,3.8,0.9c1,0.6,1.8,1.4,2.4,2.4c0.6,1,1,2,1.3,3.2c0.2,1.2,0.3,2.3,0.3,3.3h-12.9c0,0.8,0.1,1.5,0.3,2.1
		c0.2,0.7,0.5,1.3,1,1.8c0.4,0.5,1,0.9,1.7,1.3c0.7,0.3,1.5,0.5,2.4,0.5c1.2,0,2.2-0.3,2.9-0.8c0.8-0.6,1.3-1.4,1.5-2.5h2.8
		C373.1,91.9,372.3,93.3,371,94.3z M370.3,83.2c-0.3-0.6-0.6-1.1-1-1.6c-0.4-0.4-0.9-0.8-1.5-1c-0.6-0.3-1.2-0.4-1.9-0.4
		c-0.7,0-1.4,0.1-2,0.4c-0.6,0.3-1.1,0.6-1.5,1c-0.4,0.4-0.8,1-1,1.5c-0.2,0.6-0.4,1.2-0.4,1.9h9.9
		C370.7,84.5,370.6,83.8,370.3,83.2z"/>
	<path class="st2" d="M379.4,78.2v2.7h0.1c1.2-2.1,3-3.1,5.6-3.1c1.1,0,2.1,0.2,2.8,0.5c0.8,0.3,1.4,0.7,1.8,1.3
		c0.5,0.6,0.8,1.2,1,2c0.2,0.8,0.3,1.6,0.3,2.5v11.3h-2.8V83.7c0-1.1-0.3-1.9-0.9-2.5c-0.6-0.6-1.5-0.9-2.6-0.9
		c-0.9,0-1.6,0.1-2.2,0.4c-0.6,0.3-1.2,0.6-1.6,1.1c-0.4,0.5-0.7,1.1-0.9,1.7c-0.2,0.7-0.3,1.4-0.3,2.1v9.7h-2.8V78.2H379.4z"/>
	<path class="st2" d="M399.6,91.7v3.7h-3.7v-3.7H399.6z"/>
	<path class="st2" d="M414.8,81.2c-0.7-0.6-1.7-0.9-2.9-0.9c-1,0-1.9,0.2-2.6,0.6c-0.7,0.4-1.2,0.9-1.6,1.5
		c-0.4,0.6-0.7,1.3-0.9,2.1c-0.2,0.8-0.3,1.6-0.3,2.5c0,0.8,0.1,1.6,0.3,2.3c0.2,0.8,0.5,1.4,0.9,2s0.9,1.1,1.6,1.4
		c0.6,0.4,1.4,0.5,2.3,0.5c1.4,0,2.5-0.4,3.3-1.1c0.8-0.7,1.3-1.8,1.4-3.1h2.9c-0.3,2.1-1.1,3.8-2.4,4.9c-1.3,1.2-3,1.7-5.2,1.7
		c-1.3,0-2.5-0.2-3.5-0.6c-1-0.4-1.9-1-2.5-1.8c-0.7-0.8-1.2-1.7-1.5-2.8c-0.3-1.1-0.5-2.3-0.5-3.5c0-1.3,0.2-2.5,0.5-3.6
		c0.3-1.1,0.8-2.1,1.5-2.9c0.7-0.8,1.5-1.5,2.5-2c1-0.5,2.2-0.7,3.6-0.7c1,0,1.9,0.1,2.7,0.3c0.9,0.2,1.6,0.6,2.3,1.1
		c0.7,0.5,1.2,1.1,1.6,1.8c0.4,0.7,0.7,1.6,0.8,2.6h-2.9C416,82.6,415.5,81.8,414.8,81.2z"/>
	<path class="st2" d="M422,83.2c0.4-1.1,0.9-2.1,1.6-2.9c0.7-0.8,1.6-1.4,2.6-1.9c1-0.5,2.2-0.7,3.6-0.7c1.4,0,2.6,0.2,3.6,0.7
		c1,0.5,1.9,1.1,2.6,1.9c0.7,0.8,1.2,1.8,1.6,2.9c0.4,1.1,0.5,2.3,0.5,3.5c0,1.3-0.2,2.4-0.5,3.5c-0.4,1.1-0.9,2-1.6,2.9
		c-0.7,0.8-1.6,1.4-2.6,1.9c-1,0.5-2.2,0.7-3.6,0.7c-1.4,0-2.6-0.2-3.6-0.7c-1-0.5-1.9-1.1-2.6-1.9c-0.7-0.8-1.2-1.8-1.6-2.9
		c-0.4-1.1-0.5-2.3-0.5-3.5C421.5,85.5,421.7,84.3,422,83.2z M424.9,89.6c0.3,0.8,0.7,1.5,1.1,2c0.5,0.5,1.1,1,1.7,1.3
		c0.7,0.3,1.3,0.4,2.1,0.4c0.7,0,1.4-0.1,2.1-0.4c0.7-0.3,1.2-0.7,1.7-1.3c0.5-0.5,0.9-1.2,1.1-2c0.3-0.8,0.4-1.7,0.4-2.8
		s-0.1-2-0.4-2.8c-0.3-0.8-0.7-1.5-1.1-2c-0.5-0.6-1.1-1-1.7-1.3c-0.7-0.3-1.4-0.4-2.1-0.4c-0.7,0-1.4,0.1-2.1,0.4
		c-0.7,0.3-1.2,0.7-1.7,1.3c-0.5,0.6-0.9,1.2-1.1,2c-0.3,0.8-0.4,1.7-0.4,2.8S424.6,88.8,424.9,89.6z"/>
	<path class="st2" d="M444.2,78.2v2.5h0.1c1.3-2,3.1-2.9,5.6-2.9c1.1,0,2,0.2,2.9,0.7c0.9,0.4,1.5,1.2,1.8,2.3
		c0.6-0.9,1.3-1.7,2.3-2.2c0.9-0.5,2-0.8,3.1-0.8c0.9,0,1.6,0.1,2.3,0.3c0.7,0.2,1.3,0.5,1.8,0.9c0.5,0.4,0.9,0.9,1.2,1.5
		c0.3,0.6,0.4,1.4,0.4,2.3v12.6h-2.8V84.1c0-0.5,0-1-0.1-1.5c-0.1-0.5-0.3-0.9-0.5-1.2c-0.2-0.3-0.6-0.6-1-0.8
		c-0.4-0.2-1-0.3-1.7-0.3c-1.4,0-2.5,0.4-3.3,1.2c-0.8,0.8-1.2,1.9-1.2,3.2v10.7h-2.8V84.1c0-0.6-0.1-1.1-0.2-1.5
		c-0.1-0.5-0.3-0.9-0.5-1.2c-0.2-0.3-0.6-0.6-1-0.8c-0.4-0.2-0.9-0.3-1.6-0.3c-0.8,0-1.5,0.2-2.1,0.5c-0.6,0.3-1.1,0.7-1.4,1.2
		c-0.4,0.5-0.6,1-0.8,1.4c-0.2,0.5-0.3,0.9-0.3,1.3v10.7h-2.8V78.2H444.2z"/>
</g>
</svg>
