<?xml version="1.0" encoding="UTF-8"?><svg id="Layer_1" xmlns="http://www.w3.org/2000/svg" viewBox="0 0 602.09 452.96"><path d="m395.44,41.25h-2.92v-1.49h7.24v1.49h-2.75v8.02h-1.57v-8.02Zm5.69-1.49h2.16l2.89,7.21h.06l2.92-7.21h2.19v9.5h-1.57v-7.37h-.06l-2.94,7.37h-1.12l-2.89-7.35h-.06v7.35h-1.57v-9.5Zm-101.6,0h-23.73l-60.48,133.97h26.8l9.95-23.16h71.2l9.95,23.16h26.8l-60.48-133.97Zm-38.09,89.19l26.03-60.67h.38l26.03,60.67h-52.44ZM287.48,0c-65.54,0-118.67,53.13-118.67,118.67s53.13,118.68,118.67,118.68,118.67-53.13,118.67-118.68S353.03,0,287.48,0Zm0,221.45c-56.76,0-102.77-46.02-102.77-102.78S230.73,15.9,287.49,15.9s102.77,46.01,102.77,102.77-46.01,102.78-102.77,102.78Zm-187.43,193.23h4.55l5.62,30.95h.11l9.32-30.95h4.66l9.37,30.95h.11l5.51-30.95h4.55l-6.91,37.48h-5.46l-9.48-31.05h-.11l-9.42,31.05h-5.52l-6.91-37.48Zm45.31,23.29c0-9.69,6.05-14.99,12.9-14.99s12.69,5.3,12.69,14.99-5.57,14.99-12.69,14.99-12.9-5.3-12.9-14.99Zm21.26,0c0-7.17-3.64-11.03-8.35-11.03s-8.57,3.75-8.57,11.03,3.8,11.03,8.57,11.03,8.35-3.86,8.35-11.03Zm9.81-14.19h4.18v3.05h.11c1.23-2.41,3.75-3.53,5.89-3.53,1.45,0,2.46.54,2.46.54l-.8,4.34s-.8-.43-2.25-.43c-3.64,0-5.19,2.25-5.19,7.55v16.87h-4.39v-28.38Zm17.26-10.71h4.44v39.09h-4.44v-39.09Zm31.06,36.35h-.11c-1.18,1.39-4.07,3.53-8.3,3.53-7.5,0-12.31-5.89-12.31-14.99s5.46-14.99,12.31-14.99c3.86,0,6.43,1.82,7.87,3.53h.11v-13.44h4.39v39.09h-3.96v-2.73Zm-.43-15.47c0-3.27-2.57-7.01-7.28-7.01-5.68,0-8.62,4.12-8.62,11.03s2.94,11.03,8.62,11.03c4.28,0,7.28-3,7.28-6.27v-8.78Zm26.62-19.28h4.44v37.48h-4.44v-37.48Zm12.24,9.1h4.28v2.73h.11c1.5-1.98,4.66-3.53,7.98-3.53,6.1,0,10.23,3.96,10.23,10.55v18.63h-4.34v-17.24c0-5.14-2.09-7.92-6.53-7.92s-7.34,2.57-7.34,7.07v18.1h-4.39v-28.38Zm48.91,25.65h-.11c-1.18,1.39-4.07,3.53-8.3,3.53-7.5,0-12.31-5.89-12.31-14.99s5.46-14.99,12.31-14.99c3.86,0,6.42,1.82,7.87,3.53h.11v-13.44h4.39v39.09h-3.96v-2.73Zm-.43-15.47c0-3.27-2.57-7.01-7.28-7.01-5.67,0-8.62,4.12-8.62,11.03s2.94,11.03,8.62,11.03c4.28,0,7.28-3,7.28-6.27v-8.78Zm11.42-10.17h4.39v17.83c0,5.3,1.87,7.28,6.59,7.28,4.28,0,6.64-2.78,6.64-7.5v-17.62h4.34v28.38h-4.28v-2.73h-.11s-2.41,3.53-7.55,3.53c-6.1,0-10.01-3.37-10.01-10.71v-18.47Zm31.56,17.94c.54,4.93,3.11,7.44,7.87,7.44s6.75-1.93,6.75-4.5c0-2.84-1.55-3.85-8.19-5.68-6.91-1.93-9.53-4.01-9.53-8.19,0-3.96,3.43-7.82,9.85-7.82s9.9,3.59,11.03,8.14l-3.8,1.02c-1.02-3.27-3.11-5.41-7.23-5.41s-5.78,2.03-5.78,3.96c0,2.41,1.34,3.05,8.09,4.98,7.5,2.14,9.64,4.55,9.69,8.99,0,3.96-3,8.3-10.82,8.3s-11.46-4.82-12.05-10.44l4.12-.8Zm25.89-14.03h-3.96v-3.91h4.07v-6.96h4.18v6.96h7.01v3.91h-6.96v15.69c0,3.16.59,4.55,3.48,4.55h2.14v4.23h-2.36c-5.52,0-7.6-2.94-7.6-8.25v-16.22Zm16.5-3.91h4.18v3.05h.11c1.23-2.41,3.75-3.53,5.89-3.53,1.45,0,2.46.54,2.46.54l-.8,4.34s-.8-.43-2.25-.43c-3.64,0-5.19,2.25-5.19,7.55v16.87h-4.39v-28.38Zm17.09-10.71h5.03v4.98h-5.03v-4.98Zm.32,10.71h4.39v28.38h-4.39v-28.38Zm35.53,21.95c-1.87,3.69-5.68,7.23-11.89,7.23-7.6,0-13.17-5.78-13.17-14.99s5.46-14.99,12.96-14.99,12.74,5.52,12.74,14.99v1.29h-21.31c.05,5.03,2.78,9.74,8.67,9.74s7.44-3.69,8.46-5.57l3.53,2.3Zm-3.69-9.96c-.11-4.12-2.25-8.83-8.41-8.83s-8.41,5.35-8.46,8.83h16.87Zm12.29,5.94c.54,4.93,3.11,7.44,7.87,7.44s6.75-1.93,6.75-4.5c0-2.84-1.55-3.85-8.19-5.68-6.91-1.93-9.53-4.01-9.53-8.19,0-3.96,3.43-7.82,9.85-7.82s9.91,3.59,11.03,8.14l-3.8,1.02c-1.02-3.27-3.11-5.41-7.23-5.41s-5.78,2.03-5.78,3.96c0,2.41,1.34,3.05,8.08,4.98,7.5,2.14,9.64,4.55,9.69,8.99,0,3.96-3,8.3-10.82,8.3s-11.46-4.82-12.05-10.44l4.12-.8Zm-230.74-78.86l13.43-3.17c2.11,7.26,7.74,10.91,16.91,10.91,8.15,0,12.88-1.91,12.88-5.15,0-3.41-3.62-4.99-13.87-6.54-19.71-2.99-26.76-7.87-26.76-17.38s9.82-16.67,24.68-16.67c13.63,0,25.67,6.95,28.49,16.53l-13.05,3.85c-2.05-5.45-8.01-8.86-15.51-8.86-6.65,0-10.87,1.98-10.87,5.11s3.07,4.33,15.13,6.27c18.2,2.86,25.6,7.74,25.6,17.62s-10.63,16.74-26.79,16.74-27.74-7.43-30.27-19.26Zm87.36-24.27v24.3c0,3.41,1.16,4.46,5.59,4.46h9.75v13.22h-11.11c-13.36,0-18.54-5.28-18.54-16.87v-25.12h-12.68v-12.2h12.68v-13.43h14.32v13.43h17.48v12.2h-17.48Zm26-12.2h13.5v5.22h.2c3.89-4.02,9.24-6.24,15.71-6.24,3,0,5.79.51,8.83,1.43l-3.03,12.92c-2.93-.82-4.87-1.12-7.8-1.12-8.01,0-13.09,5.32-13.09,16.39v25.6h-14.32v-54.19Zm-289.15,29.72l-12.68-29.82h-.2l-12.68,29.82h25.56Zm5.49,12.99H20.93l-4.91,11.49H0l32.24-71.58h13.97l32.31,71.58h-16.09l-4.91-11.49Zm28.21-42.71h13.5v5.22h.2c3.89-4.02,9.24-6.24,15.71-6.24,3,0,5.79.51,8.83,1.43l-3.03,12.92c-2.93-.82-4.87-1.12-7.81-1.12-8.01,0-13.09,5.32-13.09,16.39v25.6h-14.32v-54.19Zm45.27,0h12.68v5.25h.2c3.72-4.12,9.85-6.78,16.74-6.78s13.7,3.03,17.28,7.7h.2c4.57-5.11,10.94-7.7,17.83-7.7,14.49,0,24.54,9.41,24.54,22.94v32.79h-13.84v-30.4c0-7.94-4.81-12.75-11.93-12.75s-12.24,4.81-12.24,12.75v30.4h-13.33v-30.4c0-7.91-5.01-12.75-11.9-12.75-7.57,0-12.37,4.81-12.37,12.75v30.4h-13.87v-54.19Zm295.21,27.1c0-9.27-6.37-16.05-16.12-16.05s-16.12,6.78-16.12,16.05,6.37,16.05,16.12,16.05,16.12-6.78,16.12-16.05Zm-46.56,0c0-16.16,12.75-28.63,30.44-28.63s30.44,12.47,30.44,28.63-12.65,28.63-30.44,28.63-30.44-12.44-30.44-28.63Zm68.45-27.1h13.84v5.28h.2c4.46-4.4,11.21-6.82,18.44-6.82,15.51,0,25.94,10.02,25.94,24.61v31.12h-14.32v-29.18c0-8.59-5.49-13.77-14.49-13.77s-15.3,5.62-15.3,13.8v29.14h-14.32v-54.19Zm112.56,30.44v-6.48c0-6.68-7.09-12.44-15.41-12.44-10.19,0-16.87,6.31-16.87,15.58,0,9.99,6.27,15.99,16.39,15.99,8.9,0,15.88-5.62,15.88-12.65Zm-43.39,35.07l10.43-8.38c5.45,6.89,10.19,9.3,18.37,9.3,8.66,0,15.13-5.62,15.13-13.26v-4.29h-.2c-3.82,4.36-10.19,6.78-17.79,6.78-16.73,0-29.14-12.03-29.14-28.56s12.17-28.19,28.6-28.19c7.77,0,14.35,2.35,18.3,6.58h.2v-5.49h13.8v53.03c0,15.13-11.93,25.7-28.9,25.7-12.54,0-22.56-4.6-28.8-13.22Zm66.74-58.01c0-5.08,3.95-9.03,9.03-9.03s9.03,3.95,9.03,9.03-3.95,9.03-9.03,9.03-9.03-3.95-9.03-9.03Zm16.48,0c0-4.26-3.18-7.49-7.44-7.49s-7.44,3.23-7.44,7.49,3.18,7.49,7.44,7.49,7.44-3.23,7.44-7.49Zm-10.62-5.39h3.34c2.46,0,3.9,1.03,3.9,3.23,0,1.8-1.08,2.72-2.67,3.13l2.41,4.47h-1.64l-2.31-4.41h-1.59v4.41h-1.44v-10.83Zm3.39,5.08c1.23,0,2.41-.31,2.41-1.85s-1.13-1.95-2.41-1.95h-1.95v3.8h1.95Z"/></svg>