<?xml version="1.0" encoding="UTF-8"?><svg id="Layer_1" xmlns="http://www.w3.org/2000/svg" xmlns:xlink="http://www.w3.org/1999/xlink" viewBox="0 0 278 72"><defs><style>.cls-1{fill:url(#New_Gradient_Swatch_copy_17-3);}.cls-1,.cls-2,.cls-3,.cls-4,.cls-5,.cls-6,.cls-7,.cls-8,.cls-9,.cls-10,.cls-11,.cls-12,.cls-13,.cls-14,.cls-15,.cls-16,.cls-17,.cls-18,.cls-19,.cls-20,.cls-21,.cls-22,.cls-23,.cls-24,.cls-25,.cls-26,.cls-27,.cls-28,.cls-29,.cls-30,.cls-31,.cls-32,.cls-33,.cls-34,.cls-35,.cls-36,.cls-37,.cls-38{stroke-width:0px;}.cls-1,.cls-2,.cls-4,.cls-8,.cls-10,.cls-11,.cls-15,.cls-16,.cls-19,.cls-24,.cls-27,.cls-28,.cls-32,.cls-33{fill-rule:evenodd;}.cls-2{fill:url(#New_Gradient_Swatch_copy_17);}.cls-3{fill:url(#New_Gradient_Swatch_copy_17-9);}.cls-4{fill:url(#New_Gradient_Swatch_copy_17-4);}.cls-5{fill:url(#New_Gradient_Swatch_copy_17-12);}.cls-6{fill:url(#New_Gradient_Swatch_copy_17-11);}.cls-7{fill:url(#New_Gradient_Swatch_copy_17-23);}.cls-8{fill:url(#New_Gradient_Swatch_copy_17-7);}.cls-9{fill:#0a0203;}.cls-10{fill:url(#New_Gradient_Swatch_copy_17-2);}.cls-11{fill:url(#New_Gradient_Swatch_copy_17-5);}.cls-12{fill:url(#New_Gradient_Swatch_copy_17-32);}.cls-13{fill:url(#New_Gradient_Swatch_copy_17-24);}.cls-14{fill:none;}.cls-15{fill:url(#New_Gradient_Swatch_copy_17-17);}.cls-16{fill:url(#New_Gradient_Swatch_copy_17-16);}.cls-17{fill:url(#New_Gradient_Swatch_copy_17-26);}.cls-18{fill:url(#New_Gradient_Swatch_copy_17-14);}.cls-39{fill:#fff;stroke:#fff;stroke-miterlimit:10;stroke-width:3.16px;}.cls-19{fill:url(#New_Gradient_Swatch_copy_17-6);}.cls-20{fill:url(#New_Gradient_Swatch_copy_17-25);}.cls-40{clip-path:url(#clippath);}.cls-21{fill:url(#New_Gradient_Swatch_copy_17-22);}.cls-22{fill:url(#New_Gradient_Swatch_copy_17-29);}.cls-23{fill:url(#New_Gradient_Swatch_copy_17-13);}.cls-24{fill:url(#New_Gradient_Swatch_copy_17-18);}.cls-25{fill:url(#New_Gradient_Swatch_copy_17-27);}.cls-26{fill:url(#New_Gradient_Swatch_copy_17-33);}.cls-27{fill:url(#New_Gradient_Swatch_copy_17-19);}.cls-28{fill:url(#New_Gradient_Swatch_copy_17-20);}.cls-29{fill:#e12827;}.cls-30{fill:url(#New_Gradient_Swatch_copy_17-31);}.cls-31{fill:url(#New_Gradient_Swatch_copy_17-34);}.cls-32{fill:url(#New_Gradient_Swatch_copy_17-15);}.cls-33{fill:url(#New_Gradient_Swatch_copy_17-21);}.cls-34{fill:url(#New_Gradient_Swatch_copy_17-30);}.cls-35{fill:url(#New_Gradient_Swatch_copy_17-35);}.cls-36{fill:url(#New_Gradient_Swatch_copy_17-10);}.cls-37{fill:url(#New_Gradient_Swatch_copy_17-28);}.cls-38{fill:url(#New_Gradient_Swatch_copy_17-8);}</style><linearGradient id="New_Gradient_Swatch_copy_17" x1="33.56" y1="24.13" x2="51.47" y2="38.33" gradientUnits="userSpaceOnUse"><stop offset="0" stop-color="#815321"/><stop offset=".15" stop-color="#fae17f"/><stop offset=".48" stop-color="#815321"/><stop offset=".53" stop-color="#fffce4"/><stop offset="1" stop-color="#bc9250"/></linearGradient><linearGradient id="New_Gradient_Swatch_copy_17-2" x1="33.8" y1="23.83" x2="51.71" y2="38.03" xlink:href="#New_Gradient_Swatch_copy_17"/><linearGradient id="New_Gradient_Swatch_copy_17-3" x1="34.01" y1="23.57" x2="51.92" y2="37.78" xlink:href="#New_Gradient_Swatch_copy_17"/><linearGradient id="New_Gradient_Swatch_copy_17-4" x1="33.92" y1="23.67" x2="51.85" y2="37.88" xlink:href="#New_Gradient_Swatch_copy_17"/><linearGradient id="New_Gradient_Swatch_copy_17-5" x1="34.12" y1="23.42" x2="52.04" y2="37.64" xlink:href="#New_Gradient_Swatch_copy_17"/><linearGradient id="New_Gradient_Swatch_copy_17-6" x1="34.3" y1="23.2" x2="52.22" y2="37.42" xlink:href="#New_Gradient_Swatch_copy_17"/><linearGradient id="New_Gradient_Swatch_copy_17-7" x1="34.35" y1="23.17" x2="52.21" y2="37.34" xlink:href="#New_Gradient_Swatch_copy_17"/><clipPath id="clippath"><path class="cls-14" d="M48.17,45.95c-2.32-.2-12.59-1.63-11.87-13.89.4-8.45,9.53-11.61,14.19-10.89.9.14,4.34.91,6.55,2.89s3.37,5.26,3.37,5.26l-10.53,16.51s.6.31-1.72.11Z"/></clipPath><linearGradient id="New_Gradient_Swatch_copy_17-8" x1="30.05" y1="25.84" x2="83.06" y2="73.97" gradientTransform="translate(2.85 .49) rotate(4.27)" xlink:href="#New_Gradient_Swatch_copy_17"/><linearGradient id="New_Gradient_Swatch_copy_17-9" x1="30.18" y1="34.25" x2="69.81" y2="70.24" xlink:href="#New_Gradient_Swatch_copy_17"/><linearGradient id="New_Gradient_Swatch_copy_17-10" x1="33.07" y1="23.6" x2="82.64" y2="68.61" gradientTransform="translate(2.85 .49) rotate(4.27)" xlink:href="#New_Gradient_Swatch_copy_17"/><linearGradient id="New_Gradient_Swatch_copy_17-11" x1="32.16" y1="24.61" x2="81.72" y2="69.61" gradientTransform="translate(2.85 .49) rotate(4.27)" xlink:href="#New_Gradient_Swatch_copy_17"/><linearGradient id="New_Gradient_Swatch_copy_17-12" x1="31.29" y1="25.57" x2="80.84" y2="70.57" gradientTransform="translate(2.85 .49) rotate(4.27)" xlink:href="#New_Gradient_Swatch_copy_17"/><linearGradient id="New_Gradient_Swatch_copy_17-13" x1="29.13" y1="26.47" x2="82.75" y2="75.17" gradientTransform="translate(2.85 .49) rotate(4.27)" xlink:href="#New_Gradient_Swatch_copy_17"/><linearGradient id="New_Gradient_Swatch_copy_17-14" x1="34.64" y1="24.49" x2="81.46" y2="57.04" xlink:href="#New_Gradient_Swatch_copy_17"/><linearGradient id="New_Gradient_Swatch_copy_17-15" x1="41.29" y1="26.75" x2="55.73" y2="38.2" xlink:href="#New_Gradient_Swatch_copy_17"/><linearGradient id="New_Gradient_Swatch_copy_17-16" x1="41.55" y1="26.42" x2="55.99" y2="37.88" xlink:href="#New_Gradient_Swatch_copy_17"/><linearGradient id="New_Gradient_Swatch_copy_17-17" x1="41.78" y1="26.14" x2="56.22" y2="37.6" xlink:href="#New_Gradient_Swatch_copy_17"/><linearGradient id="New_Gradient_Swatch_copy_17-18" x1="41.7" y1="26.23" x2="56.15" y2="37.7" xlink:href="#New_Gradient_Swatch_copy_17"/><linearGradient id="New_Gradient_Swatch_copy_17-19" x1="41.91" y1="25.97" x2="56.37" y2="37.43" xlink:href="#New_Gradient_Swatch_copy_17"/><linearGradient id="New_Gradient_Swatch_copy_17-20" x1="42.1" y1="25.72" x2="56.56" y2="37.19" xlink:href="#New_Gradient_Swatch_copy_17"/><linearGradient id="New_Gradient_Swatch_copy_17-21" x1="42.14" y1="25.69" x2="56.55" y2="37.12" xlink:href="#New_Gradient_Swatch_copy_17"/><linearGradient id="New_Gradient_Swatch_copy_17-22" x1="6.3" y1="5.47" x2="73.98" y2="112.8" xlink:href="#New_Gradient_Swatch_copy_17"/><linearGradient id="New_Gradient_Swatch_copy_17-23" x1="-8.35" y1="-23.79" x2="143" y2="127.56" xlink:href="#New_Gradient_Swatch_copy_17"/><linearGradient id="New_Gradient_Swatch_copy_17-24" x1="17.92" y1="-5.85" x2="98.96" y2="97.75" xlink:href="#New_Gradient_Swatch_copy_17"/><linearGradient id="New_Gradient_Swatch_copy_17-25" x1="62.5" y1="8.78" x2="71.04" y2="85.44" xlink:href="#New_Gradient_Swatch_copy_17"/><linearGradient id="New_Gradient_Swatch_copy_17-26" x1="48.38" y1="8.49" x2="72.69" y2="107.49" xlink:href="#New_Gradient_Swatch_copy_17"/><linearGradient id="New_Gradient_Swatch_copy_17-27" x1="14.07" y1="45.64" x2="21.11" y2="80.94" xlink:href="#New_Gradient_Swatch_copy_17"/><linearGradient id="New_Gradient_Swatch_copy_17-28" x1="15.8" y1="45.29" x2="22.84" y2="80.59" xlink:href="#New_Gradient_Swatch_copy_17"/><linearGradient id="New_Gradient_Swatch_copy_17-29" x1="17.35" y1="44.98" x2="24.39" y2="80.28" xlink:href="#New_Gradient_Swatch_copy_17"/><linearGradient id="New_Gradient_Swatch_copy_17-30" x1="19.73" y1="44.51" x2="26.77" y2="79.81" xlink:href="#New_Gradient_Swatch_copy_17"/><linearGradient id="New_Gradient_Swatch_copy_17-31" x1="21.81" y1="44.1" x2="28.85" y2="79.4" xlink:href="#New_Gradient_Swatch_copy_17"/><linearGradient id="New_Gradient_Swatch_copy_17-32" x1="25.07" y1="43.44" x2="32.11" y2="78.74" xlink:href="#New_Gradient_Swatch_copy_17"/><linearGradient id="New_Gradient_Swatch_copy_17-33" x1="27.68" y1="42.92" x2="34.72" y2="78.22" xlink:href="#New_Gradient_Swatch_copy_17"/><linearGradient id="New_Gradient_Swatch_copy_17-34" x1="30.23" y1="42.41" x2="37.27" y2="77.71" xlink:href="#New_Gradient_Swatch_copy_17"/><linearGradient id="New_Gradient_Swatch_copy_17-35" x1="32.55" y1="41.95" x2="39.6" y2="77.25" xlink:href="#New_Gradient_Swatch_copy_17"/></defs><path class="cls-9" d="M131.32,42.97v-.13c1.23-.23,2.1-.79,2.59-1.65.5-.87.74-1.9.72-3.11,0-2.15-.43-3.74-1.33-4.76-.9-1.03-2.33-1.53-4.28-1.53h-11.89c-1.07,0-1.9.27-2.51.84-.61.57-.92,1.45-.93,2.66v15.73c.01,1.21.32,2.09.93,2.64.61.56,1.45.83,2.51.82h12.22c2.25-.02,3.78-.59,4.59-1.7.8-1.11,1.18-2.64,1.13-4.59.03-1.47-.23-2.65-.77-3.55-.54-.9-1.53-1.45-2.96-1.67M119.53,37.65c0-.56.09-.94.3-1.16.21-.21.6-.31,1.16-.3h5.52c.81,0,1.39.18,1.75.56.36.38.54.97.53,1.78,0,.88-.17,1.5-.52,1.87-.36.37-.93.54-1.72.53h-7.02v-3.28ZM119.53,45.14h7.18c.81,0,1.41.18,1.8.56.39.39.58,1.02.58,1.9,0,.88-.19,1.52-.59,1.9-.4.38-1.04.57-1.91.56h-5.43c-.64.01-1.07-.09-1.3-.32s-.34-.66-.32-1.3v-3.31Z"/><path class="cls-9" d="M146.87,37.68c.06-.18.13-.35.21-.49.08-.14.17-.22.28-.22.11,0,.2.08.26.22.07.14.13.3.19.49l2.89,7.2h-6.72l2.89-7.2ZM134.4,54.48h6.11l2.05-5.19h9.59l2.05,5.19h6.14l-8.52-20.29c-.45-1.08-1.05-1.79-1.8-2.16-.74-.36-1.63-.53-2.65-.5-1.36,0-2.37.22-3.01.66-.64.44-1.13,1.11-1.47,2l-8.48,20.29Z"/><path class="cls-9" d="M177.74,54.48v-4.54h-6.82c-1.72.02-3.07-.16-4.04-.54-.98-.38-1.67-1.06-2.07-2.06-.4-.99-.59-2.4-.58-4.22-.01-1.82.18-3.22.58-4.22.4-.99,1.09-1.68,2.07-2.05.98-.38,2.33-.56,4.04-.54h6.5v-4.54h-9.39c-2.52,0-4.5.46-5.93,1.36-1.43.9-2.43,2.19-3.01,3.88-.58,1.69-.86,3.73-.84,6.11-.02,2.39.26,4.42.84,6.11.58,1.69,1.58,2.98,3.01,3.88,1.43.9,3.4,1.35,5.93,1.36h9.71Z"/><path class="cls-9" d="M197.04,54.48v-4.54h-6.82c-1.72.02-3.07-.16-4.04-.54-.98-.38-1.67-1.06-2.07-2.06-.4-.99-.59-2.4-.58-4.22-.01-1.82.18-3.22.58-4.22.4-.99,1.09-1.68,2.07-2.05.98-.38,2.33-.56,4.04-.54h6.5v-4.54h-9.39c-2.52,0-4.5.46-5.93,1.36-1.43.9-2.43,2.19-3.01,3.88-.58,1.69-.86,3.73-.84,6.11-.02,2.39.26,4.42.84,6.11.58,1.69,1.58,2.98,3.01,3.88,1.43.9,3.4,1.35,5.93,1.36h9.71Z"/><path class="cls-9" d="M210.25,37.68c.06-.18.13-.35.21-.49.08-.14.17-.22.28-.22.11,0,.2.08.26.22.07.14.13.3.19.49l2.89,7.2h-6.72l2.89-7.2ZM197.78,54.48h6.11l2.05-5.19h9.59l2.05,5.19h6.14l-8.51-20.29c-.46-1.08-1.05-1.79-1.8-2.16-.74-.36-1.63-.53-2.65-.5-1.36,0-2.37.22-3.01.66-.64.44-1.13,1.11-1.47,2l-8.48,20.29Z"/><path class="cls-9" d="M224.44,54.48h5.85v-16.63c0-.56.11-.96.34-1.19.23-.23.63-.34,1.19-.34h5.43c1.09-.02,1.85.21,2.28.68.43.47.63,1.28.62,2.44.03,1.13-.15,1.98-.52,2.54-.37.56-1.09.84-2.15.84h-1.92c-1.06-.02-1.89.12-2.47.4-.58.29-.88.83-.88,1.64v.52c.03.63.27,1.2.71,1.72.44.52.89,1.02,1.34,1.48l5.14,5.9h7.18l-7.24-7.26v-.16h1.62c1.38-.02,2.45-.41,3.2-1.15.75-.74,1.27-1.7,1.56-2.88.28-1.18.42-2.44.41-3.78.04-2.37-.38-4.2-1.27-5.49-.89-1.29-2.49-1.95-4.8-1.97h-12.15c-1.07,0-1.9.27-2.51.84-.61.56-.92,1.45-.93,2.66v19.19Z"/><path class="cls-9" d="M258.85,37.68c.06-.18.13-.35.21-.49.08-.14.17-.22.28-.22.11,0,.2.08.26.22.07.14.13.3.19.49l2.89,7.2h-6.72l2.89-7.2ZM246.37,54.48h6.11l2.05-5.19h9.59l2.05,5.19h6.14l-8.52-20.29c-.45-1.08-1.05-1.79-1.8-2.16-.74-.36-1.63-.53-2.65-.5-1.36,0-2.37.22-3.01.66-.64.44-1.13,1.11-1.47,2l-8.48,20.29Z"/><path class="cls-29" d="M91.96,43.59h-11.09v-11.51h11.09v11.51ZM111.1,54.48v-10.8h-9.1v-15.21c0-4-3.25-7.25-7.27-7.25h-10.46s-3.42,0-3.42,0v-10.45h-10.9v36.46c0,4,3.25,7.25,7.27,7.25h33.88Z"/><path class="cls-9" d="M275.69,35.73c0,2.27-1.84,4.11-4.11,4.11s-4.11-1.84-4.11-4.11,1.84-4.11,4.11-4.11,4.11,1.84,4.11,4.11M268.12,35.73c0,1.91,1.56,3.47,3.47,3.47s3.46-1.56,3.46-3.47-1.56-3.47-3.46-3.47-3.47,1.56-3.47,3.47M271.27,33.46c1.05,0,1.86-.01,1.86,1.36,0,.83-.31,1.16-.79,1.28l.89,1.84h-.61l-.77-1.77c-.17.02-.36.02-.56.02h-.56v1.76h-.59v-4.48h1.14ZM271.3,35.82c.76,0,1.25,0,1.25-.96s-.48-.96-1.23-.96h-.6v1.92h.58Z"/><path class="cls-2" d="M38.9,28.1c.16.16.14.27.06.35-.08.08-.19.1-.35-.06-.16-.16-.23-.52-.23-.52,0,0,.36.07.52.23h0Z"/><path class="cls-10" d="M38.92,27.67c.13.13.12.23.05.3-.07.07-.16.08-.29-.05-.13-.13-.19-.44-.19-.44,0,0,.3.06.43.19h0Z"/><path class="cls-1" d="M38.93,27.28c.12.12.1.2.04.26-.06.06-.14.07-.26-.04-.12-.12-.17-.38-.17-.38,0,0,.26.05.38.17h0Z"/><path class="cls-4" d="M39.09,27.88c-.16.16-.14.27-.06.35.08.08.19.1.35-.06.16-.16.23-.52.23-.52,0,0-.36.07-.52.23h0Z"/><path class="cls-11" d="M39.07,27.45c-.13.13-.12.23-.05.3.07.07.16.08.29-.05.13-.13.19-.44.19-.44,0,0-.3.06-.43.19h0Z"/><path class="cls-19" d="M39.06,27.07c-.12.12-.1.2-.04.26.06.06.14.07.26-.04.12-.12.17-.38.17-.38,0,0-.26.05-.38.17h0Z"/><path class="cls-8" d="M39.07,26.84c0,.2-.08.25-.18.25s-.18-.06-.18-.25.18-.46.18-.46c0,0,.18.27.18.46h0Z"/><g class="cls-40"><path class="cls-38" d="M47.79,43.15c-1.84-1.16-3.86-2.18-6-3-1.73-.67-3.48-1.19-5.23-1.57.15.26.31.52.48.78,1.51.36,3.03.82,4.52,1.4,2.1.81,4.08,1.8,5.89,2.95l.18-.28-.18.28c1.56.99,2.99,2.09,4.24,3.29.15.01.3.03.46.04.18.01.37.02.55.03-1.42-1.44-3.06-2.75-4.9-3.91h0Z"/><path class="cls-3" d="M38.34,42.51c1.22.93,2.7,1.7,4.34,2.23-.93-.61-1.94-1.17-3.01-1.67-.44-.2-.88-.39-1.33-.57h0Z"/><path class="cls-36" d="M49.44,38.43c-2.17-.9-4.49-1.59-6.88-2.06-2.36-.46-4.71-.7-7.01-.69v.04c.03.19.06.39.11.58,2.22,0,4.5.22,6.78.67,2.35.46,4.63,1.15,6.76,2.03,2.32.96,4.48,2.16,6.41,3.58,1.25.92,2.4,1.93,3.45,3.03.22-.07.43-.14.65-.21-1.13-1.2-2.38-2.31-3.74-3.31-1.97-1.45-4.17-2.68-6.54-3.65h0Z"/><path class="cls-6" d="M48.65,39.9c-2.03-.96-4.2-1.74-6.45-2.31-2.16-.55-4.33-.89-6.46-1.01.06.21.12.42.19.62,2.01.13,4.07.46,6.11.98,2.22.56,4.35,1.33,6.34,2.27l.13-.28-.13.28c2.13,1.01,4.09,2.23,5.82,3.64.82.67,1.59,1.38,2.31,2.13.24-.04.48-.09.72-.14-.81-.87-1.69-1.69-2.64-2.46-1.77-1.44-3.77-2.69-5.95-3.72h0Z"/><path class="cls-5" d="M47.85,41.38c-1.88-1.02-3.9-1.88-6.03-2.56-1.92-.61-3.85-1.04-5.77-1.29.09.22.19.44.3.66,1.76.25,3.53.66,5.28,1.21,2.09.66,4.08,1.51,5.92,2.51l.15-.27-.15.27c1.94,1.06,3.7,2.3,5.24,3.69.33.3.64.6.94.91.27-.01.54-.03.8-.05-.42-.45-.87-.89-1.33-1.31-1.57-1.43-3.37-2.7-5.35-3.78h0Z"/><path class="cls-23" d="M46.23,44.17c-1.56-1.11-3.3-2.1-5.17-2.94-1.21-.55-2.44-1.01-3.69-1.4.23.3.49.59.76.87.9.31,1.79.67,2.67,1.06,1.83.83,3.54,1.8,5.07,2.88l.18-.23-.18.23c.44.31,1.86,1.32,2.27,1.65.41.1.83.2,1.25.28-.67-.6-2.39-1.85-3.15-2.4h0Z"/><path class="cls-18" d="M35.41,31.55h-.05c-.48.09-.95.19-1.4.28-.76.18-1.65.39-2.52.66-.64.19-1.29.41-1.94.65-.01.16-.02.32-.02.47.7-.27,1.41-.51,2.1-.71l-.06-.21.07.21c.85-.27,1.73-.47,2.48-.65.8-.17,1.66-.34,2.52-.45l-.03-.22.03.22c1.59-.23,3.26-.36,5.1-.37,1.77,0,3.47.11,5.08.32l.03-.22-.03.22c1.34.17,2.69.4,4.04.7v.53c-1.37-.31-2.75-.55-4.11-.72-1.58-.2-3.27-.31-5.01-.31v.22s0-.22,0-.22c-1.82.02-3.46.13-5.02.37-.79.11-1.57.26-2.49.45-.75.17-1.61.38-2.44.64-.74.22-1.49.48-2.24.77,0,.15.02.3.04.45.27-.1.19.19.23.5,2.49-.32,5.07-.39,7.68-.21,2.68.19,5.3.64,7.8,1.33l.18-.63c-.37-.1-.74-.2-1.11-.29.68.05,1.34.11,1.98.19l.03-.22-.03.22c.7.09,1.42.2,2.14.33l-.78.44.02.04c-.74-.26-1.48-.49-2.24-.7l-.18.63c2.75.76,5.36,1.84,7.74,3.2,1.79,1.02,3.45,2.21,4.97,3.54.2-.11.4-.23.6-.35-.11-.1-.23-.2-.34-.3l1.32-1.01.89-.6.94-.55.62-.32c.33-.37.63-.75.9-1.14l-.82.36-1.02.52-.97.57-.92.62-.86.65-.59.46c-.24-.2-.48-.39-.72-.58l.92-.66.96-.61,1-.56,1.04-.51,1.08-.45,1.12-.4.18-.05c.16-.26.3-.53.43-.8l-.81.24-1.15.41-1.12.47-1.08.53-1.03.58-.99.63-1.09.78c-.27-.2-.55-.4-.83-.59l.46-.32,1.03-.63,1.08-.58,1.12-.52,1.15-.46,1.18-.4,1.21-.34,1.07-.23c.09-.23.18-.47.25-.71l-.21.03-1.27.28-1.25.35-1.22.41-1.18.48-1.15.54-1.11.6-1.07.65-.66.45.05.06c-.34-.22-.68-.44-1.02-.65l1.08-.65,1.16-.61,1.2-.55,1.23-.49,1.26-.42,1.28-.35,1.3-.28,1.32-.21.37-.04c.06-.22.11-.44.14-.67l-.59.06-1.36.21-1.34.29-1.32.36-1.29.43-1.26.5-1.23.56-1.19.63-1.15.69-.23.15s-.09-.05-.13-.08c-.31-.17-.62-.34-.93-.51l.59-.36,1.25-.66,1.28-.59,1.32-.52,1.34-.45,1.36-.37,1.38-.3,1.4-.22,1.4-.14.73-.03c.03-.22.04-.44.05-.66l-.83.04-1.44.15h0l-1.43.23-1.42.31-1.4.38-1.38.46-1.35.53-1.32.6-1.28.67-.95.57h0c-.4-.19-.8-.38-1.21-.57l.09-.05,1.34-.72,1.38-.64,1.41-.57,1.43-.49,1.46-.41,1.47-.33,1.48-.25,1.49-.16,1.49-.08h.96c0-.21-.01-.43-.03-.65h-.95s-1.53.08-1.53.08l-1.53.17-1.52.25-1.51.34-1.49.42-1.47.5-1.44.58-1.41.66-1.38.74-.5.3c-.44-.19-.89-.37-1.34-.53l.98-.55,1.48-.72,1.51-.63,1.53-.54,1.55-.46,1.57-.37,1.58-.28,1.58-.19,1.58-.11,1.57-.02,1.07.05c-.03-.22-.07-.44-.11-.66l-.94-.05-1.61.02-.63.04v-3.24l-3.19-1.44h-3.85l-.05-.02-3.24,1.46v3.11c-.98-.22-1.97-.4-2.95-.55,0-.01,0-.03,0-.04,0-.05,0-.1.01-.15,0-.01,0-.02.01-.04,0-.02.02-.03.03-.05.01-.02.02-.05.03-.07,0,0,.01-.02.02-.02.06-.02.11-.06.14-.12.02-.03.04-.06.06-.08.02-.02.04-.04.05-.07,0-.02.02-.04.02-.06.01-.03.02-.06.04-.08.02-.01.03-.03.05-.04.03-.03.07-.04.11-.03.04,0,.08.01.11,0,.04,0,.07,0,.11.02.01,0,.02,0,.03.01.02,0,.03,0,.04,0,.02-.02.03-.03.05-.04,0,0,.02-.02.02-.03,0-.01,0-.02,0-.03,0-.02,0-.04-.02-.05-.02-.02-.04-.03-.06-.05-.02-.02-.03-.04-.04-.05-.02-.02-.03-.05-.04-.08,0-.02-.01-.03-.02-.05-.01-.02-.03-.05-.05-.07,0,0,0,0-.01-.02.05-.04.07-.08.05-.11-.02.02-.03.04-.05.05-.01.01-.03.02-.05,0-.02,0-.04,0-.06,0,.05-.03.06-.07.04-.11-.02.04-.05.07-.09.08,0,0-.01,0-.02.01-.02.01-.04.03-.03.06,0,0,0,0,0,.01,0,0-.01-.02-.02-.02-.02-.03-.05-.04-.09-.04-.02,0-.03,0-.04.02,0,.02,0,.03.02.04.01.01.03.03.04.04-.04.01-.08.01-.12.01-.07,0-.14,0-.2-.04-.06-.03-.12-.03-.18-.01-.03,0-.05.01-.08,0-.04,0-.07-.01-.11-.02-.08-.02-.16-.05-.25-.05-.07,0-.13,0-.2-.01-.05,0-.09,0-.14-.01-.04,0-.08-.02-.12-.03-.06-.02-.11-.04-.17-.04-.05,0-.1,0-.15,0-.04,0-.07,0-.11.02-.04,0-.06.03-.07.07-.03.08-.06.17-.06.26,0,.09-.02.19-.03.28,0,.03-.02.05-.04.07-.04.03-.06.08-.06.13,0,.03,0,.06,0,.1,0,0,0,.01,0,.02,0,0,0,0,0,0,.01-.01.02-.03.04-.04,0,0,0,0,0,.01,0-.01,0-.02.01-.03.03-.04.05-.09.05-.14,0-.01,0-.03,0-.04,0-.02.01-.05.02-.07.02-.07.03-.15.04-.22,0-.03,0-.05,0-.08,0,0,0,0,0,0,0,0,0,0,0,.01,0,.03,0,.06,0,.09,0,.07,0,.14,0,.2,0,.03-.01.06-.03.09-.02.03-.04.07-.06.1-.01.02-.02.04-.01.07,0,.04,0,.08,0,.11-.01.08-.03.15-.04.23h0c-.3-.03-.61-.06-.92-.08h0s-.07-.07-.07-.11c0-.06,0-.12,0-.18,0-.01,0-.03.01-.05,0-.02.02-.04.03-.07.01-.03.02-.06.02-.09,0,0,.01-.02.02-.02.07-.03.12-.09.15-.16.02-.04.04-.07.06-.11.02-.03.04-.06.05-.09,0-.02.01-.05.02-.07,0-.04.02-.07.04-.1.02-.02.03-.04.05-.06.03-.04.07-.06.13-.06.05,0,.09,0,.14,0,.05-.01.09-.01.14,0,.01,0,.03,0,.04,0,.02,0,.04,0,.05-.02.02-.02.03-.04.06-.06.01,0,.02-.02.02-.04,0-.01,0-.03,0-.04,0-.03-.01-.05-.03-.06-.03-.02-.05-.03-.08-.05-.02-.02-.04-.04-.06-.06-.03-.03-.05-.06-.06-.09,0-.02-.02-.04-.03-.06-.02-.03-.05-.05-.07-.08,0,0-.01-.01-.02-.02.06-.05.08-.11.05-.14-.02.02-.03.05-.05.07-.02.02-.04.03-.06.02-.02,0-.05,0-.07,0,.05-.05.06-.09.03-.14-.02.05-.05.09-.1.11,0,0-.01.01-.02.01-.03.02-.04.05-.03.08,0,0,0,0,0,.01-.01,0-.02-.02-.03-.02-.03-.03-.07-.05-.11-.04-.02,0-.04,0-.05.03,0,.02.01.04.03.05.02.01.04.03.05.04-.05.02-.09.03-.14.03-.09,0-.17.01-.25-.01-.07-.02-.15-.02-.22.01-.03.01-.06.02-.09.02-.05,0-.09,0-.14-.01-.1-.02-.2-.03-.31-.03-.08,0-.16.01-.25.01-.06,0-.11.01-.17,0-.05,0-.1-.01-.15-.02-.07-.01-.14-.03-.21-.02-.06,0-.12.01-.18.02-.04,0-.09.02-.13.04-.04.02-.07.05-.08.1-.03.11-.04.21-.03.32.01.11,0,.23,0,.35,0,.03-.01.07-.04.09-.05.05-.06.1-.05.17,0,.04.01.08.02.12,0,0,0,.02,0,.02,0,0,0,0,0,0,.01-.02.02-.04.04-.06,0,0,0,0,0,.02,0-.01,0-.02.01-.03.03-.06.05-.12.04-.18,0-.02,0-.03,0-.05,0-.03,0-.06.01-.09.01-.09.02-.18.02-.28,0-.03,0-.06,0-.09,0,0,0,0,0,0,0,0,0,.01,0,.02,0,.03,0,.07.01.1.01.08.02.16.03.25,0,.04,0,.08-.02.12-.02.04-.04.09-.06.13-.01.03-.01.06,0,.09,0,.04.01.09.01.14,0,.08-.01.17-.02.25-.34-.01-.68-.02-1.03-.03-.04,0-.08,0-.13,0-.07,0-.13,0-.2,0,.04-.35.18-.99.71-1.69h0c-.42.14-.64.46-.74.8l-.02-.71h-.08l-.04,1.59h-.07c-.8,0-1.57.03-2.31.08-.06,0-.12,0-.18.01h-.03c.02-.4.18-1.37,1.03-2.43h0c-.6.18-.91.61-1.06,1.08l-.02-.96h-.11l-.05,2.33h-.08c-.8.07-1.58.15-2.33.27-.15.02-.3.04-.44.07-.09.01-.17.03-.26.04,0,0,0,0,0,0l-.11.02M35.65,29.7,45.14,31.14h-.14c0-.08-.01-.14,0-.21,0-.02.01-.05.02-.07,0-.01.02-.02.02-.04,0-.02.02-.05.02-.07,0-.03,0-.06.01-.09.01.05.02.1.03.16,0,.02.01.05.01.07,0,.07,0,.14,0,.2,0,.02,0,.03.01.05h0ZM44.86,31.12c-.36-.03-.72-.05-1.09-.07-.03-.03-.06-.07-.07-.11-.03-.11-.03-.22-.03-.33,0,0,0,0,0,0,0,0,.01,0,.02,0,.02,0,.02,0,.02.03,0,.01,0,.02,0,.03,0,0,.01.01.02.01,0,0,.01,0,.02-.01,0,0,0-.01,0-.02,0-.04.01-.05.05-.04,0,0,.01.01.02.02,0,0,0,.02,0,.03,0,0,.01.01.02.01,0,0,.01,0,.01-.02,0,0,0-.02,0-.03,0-.02,0-.03.02-.03.04-.02.07-.05.09-.1,0,0,0,0,0,0,.06.02.11.05.17.06.13.04.25.06.39.04.05,0,.1-.02.15-.04.05-.01.1,0,.15.01.02,0,.03.02.03.03,0,.03,0,.06,0,.09,0,.02,0,.04,0,.06,0,.01,0,.02,0,.03,0,.07,0,.15,0,.22,0,.04-.02.07-.03.11h0ZM43.6,31.04h-.2c0-.08,0-.16,0-.24,0-.07.04-.13.08-.18,0,0,0,0,0,.01.06.11.09.22.1.34,0,.02,0,.04,0,.06h0ZM47.75,31.44h-.1c0-.06,0-.1.02-.14,0-.02.02-.04.03-.05,0,0,.02-.02.02-.03,0-.02.02-.04.02-.06,0-.02.01-.05.02-.08,0,.04,0,.09.01.13,0,.02,0,.04,0,.06,0,.06-.02.11-.02.16h0ZM47.54,31.41c-.24-.03-.48-.07-.73-.1l-.15-.02h0s-.05-.07-.05-.11c0-.09,0-.18.01-.27,0,0,0,0,0,0,0,0,.01,0,.02,0,.01,0,.02,0,.01.02,0,0,0,.02,0,.03,0,0,0,.01.01.01,0,0,.01,0,.01,0,0,0,0,0,0-.01,0-.04.01-.04.05-.03,0,0,.01.01.01.02,0,0,0,.02,0,.02,0,0,0,0,.01,0s.01,0,.01-.01c0,0,0-.02,0-.02,0-.01,0-.02.02-.03.04-.01.07-.04.08-.07,0,0,0,0,0,0,.04.02.08.05.13.07.1.05.2.07.31.07.04,0,.08,0,.13-.02.04,0,.08,0,.12.03.01,0,.02.02.02.03,0,.03,0,.05,0,.08,0,.02,0,.04,0,.05,0,0,0,.02,0,.03,0,.06,0,.12-.02.18,0,.02-.01.04-.02.06h0ZM46.53,31.28l-.17-.02h0c0-.07,0-.14.03-.21.01-.05.04-.1.08-.14,0,0,0,0,0,.01.04.09.05.19.05.29,0,.03,0,.05.01.07h0ZM52.37,34.01v-2.39h1.09v1.99h.03l-1.13.4h0ZM60.15,32.2l-1.62.2-1.24.22v-3.59h3.1l.31.14v2.99l-.55.04h0ZM51.24,29.17l2.8-1.26,2.8,1.26v3.53l-1.54.36-1.41.41v-2.29h-1.97v3h0l-.69.29v-5.3h0ZM31.85,33.81l-.06-.21.07.21c.82-.26,1.68-.46,2.41-.63.91-.19,1.67-.34,2.45-.44l-.03-.22.03.22c1.54-.23,3.17-.35,4.96-.36,1.72,0,3.39.11,4.96.31l.03-.22-.03.22c1.37.17,2.77.42,4.16.74v.53c-1.41-.33-2.83-.58-4.23-.75-1.54-.2-3.19-.3-4.89-.31v.22s0-.22,0-.22c-1.77.02-3.37.13-4.89.36-.85.11-1.69.28-2.42.44-.68.16-1.39.33-2.11.54-.76.05-1.51.11-2.25.2.62-.23,1.23-.44,1.84-.62h0ZM34.26,34.16c.07-.02.14-.03.21-.05.71-.15,1.55-.32,2.38-.43l-.03-.22.03.22c1.5-.22,3.08-.34,4.83-.35,1.68,0,3.31.1,4.84.3l.03-.22-.03.22c1.41.18,2.85.44,4.28.77v.25l-.19.08-.26.13v-.03c-1.29-.29-2.61-.52-3.9-.68-1.5-.19-3.11-.29-4.77-.3v.22s0-.22,0-.22c-1.72.01-3.55.15-5.02.37-.8-.04-1.6-.06-2.4-.05h0ZM46.34,35.08c-1.43-.18-2.96-.28-4.54-.29-.93-.17-1.87-.3-2.81-.4.89-.07,1.81-.11,2.7-.12,1.64,0,3.23.1,4.71.29l.03-.22-.03.22c1.11.14,2.24.33,3.36.57l-.67.32-.1.05h0c-.89-.19-1.79-.33-2.66-.44h0Z"/></g><path class="cls-32" d="M44.01,28.61c.18.17.16.29.07.38-.09.09-.22.11-.4-.06-.18-.17-.26-.57-.26-.57,0,0,.41.07.59.25h0Z"/><path class="cls-16" d="M44.03,28.14c.15.15.13.25.06.32-.08.07-.18.09-.34-.05-.15-.15-.22-.48-.22-.48,0,0,.35.06.5.21h0Z"/><path class="cls-15" d="M44.04,27.72c.14.13.12.22.05.28-.07.06-.16.08-.3-.05-.14-.13-.19-.42-.19-.42,0,0,.3.05.44.18h0Z"/><path class="cls-24" d="M44.23,28.38c-.18.17-.16.29-.07.38.09.09.22.11.4-.06.18-.17.26-.57.26-.57,0,0-.41.07-.59.25h0Z"/><path class="cls-27" d="M44.21,27.91c-.15.15-.13.25-.06.32.08.07.18.09.34-.05.15-.15.22-.48.22-.48,0,0-.35.06-.5.21h0Z"/><path class="cls-28" d="M44.2,27.49c-.14.13-.12.22-.05.28.07.06.16.08.3-.05.14-.13.19-.42.19-.42,0,0-.3.05-.44.18h0Z"/><path class="cls-33" d="M44.2,27.25c0,.22-.09.28-.21.28s-.21-.06-.21-.28.21-.51.21-.51c0,0,.21.29.21.51h0Z"/><path class="cls-39" d="M77.76,17.64s-1.29,18.02-24.92,32.5c11.6-11.94,16.92-26.85,18.46-31.81l6.46-.7Z"/><path class="cls-39" d="M71.3,18.33c-1.53,4.95-6.86,19.87-18.46,31.81-3.77,2.31-8.12,4.53-13.12,6.58,2.45-1.29,19.74-11.23,26.92-37.88l4.66-.5Z"/><path class="cls-21" d="M34.78,18.51c-1.05-.07-2.16-.07-3.54.07-7.8.72-12.91,4.98-15.01,10.03l.07.07c2.36-2.1,5.37-3.28,8.78-3.28,6.23,0,10.88,4.85,10.88,11.93,0,9.18-7.01,17.37-17.04,17.37s-14.22-6.55-14.22-14.94c0-9.7,4.65-18.09,10.55-22.74,4.78-3.8,11.01-5.9,17.44-6.23,1.57-.13,2.62-.07,3.54,0l-1.44,7.73ZM26.19,38.3c0-3.74-2.1-5.9-5.24-5.9-2.62,0-4.85,1.7-6.16,4-.39.66-.66,1.51-.66,2.1-.13.85-.2,1.57-.2,2.29,0,3.67,1.9,6.62,5.24,6.62,4.59,0,7.01-5.11,7.01-9.11Z"/><path class="cls-7" d="M63.16,22.19c-.82,2.53-1.73,4.9-2.71,7.1-1.72-4.8-6.32-8.24-11.71-8.24-6.87,0-12.4,5.57-12.44,12.44-.05,6.85,4,11.66,12.44,12.44.4.03.79-.02,1.18-.06-2.1,2.37-4.15,4.29-5.96,5.8-6.68-2.62-12.14-9.01-12.14-16.62,0-9.92,8.58-19.2,18.5-19.2,4.93,0,9.59,3.11,12.83,6.32Z"/><path class="cls-13" d="M64.07,19.19c-.29,1.02-.59,2.02-.91,2.99-3.25-3.22-7.72-5.21-12.65-5.21-9.92,0-17.39,8.06-17.97,17.97-.4,6.79,4.34,13.29,11.42,16.73-.73.61-1.42,1.15-2.06,1.63-8.21-2.84-14.12-10.64-14.12-19.82,0-11.58,9.38-20.96,20.96-20.96,6.04,0,11.5,2.56,15.32,6.66Z"/><path class="cls-20" d="M77.76,17.64s-1.29,18.02-24.92,32.5c11.6-11.94,16.92-26.85,18.46-31.81l6.46-.7Z"/><path class="cls-17" d="M71.3,18.33c-1.53,4.95-6.86,19.87-18.46,31.81-3.77,2.31-8.12,4.53-13.12,6.58,2.45-1.29,19.74-11.23,26.92-37.88l4.66-.5Z"/><path class="cls-25" d="M15.6,59.11s-.06-.04-.08-.07c-.02-.03-.03-.06-.03-.1,0-.05.02-.09.05-.12.03-.03.07-.05.12-.05.03,0,.05,0,.08.02.25.11.52.17.81.17.48,0,.72-.16.72-.47,0-.08-.03-.15-.09-.2s-.14-.1-.23-.13c-.09-.03-.22-.07-.39-.11-.22-.06-.4-.11-.54-.17s-.25-.13-.35-.24c-.1-.11-.15-.25-.15-.43,0-.16.04-.3.12-.42.08-.13.2-.23.36-.3s.35-.11.58-.11c.3,0,.57.05.82.14.08.03.11.08.11.16,0,.04-.01.08-.05.12-.03.04-.07.05-.12.05-.02,0-.04,0-.07-.02-.21-.07-.43-.11-.66-.11s-.39.04-.53.12-.2.2-.2.34c0,.1.03.18.1.24s.14.11.24.14c.1.03.23.07.4.11.22.05.39.1.52.16s.25.13.34.24c.09.11.14.26.14.44,0,.15-.04.29-.13.41-.09.12-.21.22-.37.28s-.34.1-.55.1c-.35,0-.67-.07-.98-.2Z"/><path class="cls-37" d="M18.12,56.69s-.06-.09-.06-.15v-.02c0-.06.02-.11.06-.15.04-.04.09-.06.15-.06h.02c.06,0,.11.02.15.06s.06.09.06.15v.02c0,.06-.02.11-.06.15s-.09.06-.15.06h-.02c-.06,0-.11-.02-.15-.06ZM18.14,59.23s-.05-.08-.05-.13v-1.76c0-.05.02-.1.05-.13.04-.04.08-.06.13-.06.05,0,.1.02.14.05s.05.08.05.14v1.76c0,.05-.02.1-.06.13-.04.04-.08.05-.13.05s-.1-.02-.13-.05Z"/><path class="cls-22" d="M19.16,59.23s-.05-.08-.05-.13v-1.76c0-.05.02-.1.05-.13.04-.04.08-.06.13-.06s.1.02.13.06.06.08.06.13v.17c.1-.11.22-.21.34-.27.12-.07.26-.1.43-.1.15,0,.28.04.39.11s.2.17.25.29.09.26.09.41v1.16c0,.05-.02.1-.06.13-.04.04-.08.05-.13.05s-.1-.02-.13-.05c-.04-.04-.05-.08-.05-.13v-1.12c0-.33-.15-.5-.45-.5-.14,0-.26.04-.37.11-.11.07-.21.17-.3.29v1.23c0,.05-.02.1-.06.13-.04.04-.08.05-.13.05s-.1-.02-.13-.05Z"/><path class="cls-34" d="M22.03,59.18c-.17-.09-.3-.21-.4-.38-.1-.16-.15-.36-.15-.58s.05-.41.15-.58c.1-.16.23-.29.4-.38.17-.09.35-.13.55-.13.14,0,.27.02.37.05.11.04.2.08.29.14.05.04.08.08.08.14,0,.04-.02.08-.05.11-.03.03-.07.05-.11.05-.03,0-.06,0-.09-.02-.09-.05-.17-.08-.23-.1-.06-.02-.14-.03-.24-.03-.24,0-.42.07-.55.2s-.2.31-.2.53.07.4.2.53.32.2.55.2c.1,0,.18-.01.24-.03s.14-.05.23-.1c.03-.02.06-.02.09-.02.04,0,.08.02.11.05.03.03.05.07.05.11,0,.06-.03.11-.08.14-.09.06-.19.1-.29.14-.1.04-.23.06-.37.06-.2,0-.38-.04-.55-.13Z"/><path class="cls-30" d="M23.92,59.02c-.19-.19-.28-.46-.28-.8,0-.19.04-.37.11-.54.07-.16.18-.3.33-.4.15-.1.33-.15.54-.15.2,0,.38.05.52.14.15.09.26.22.34.38.08.16.11.33.11.51,0,.05-.02.1-.05.13-.03.04-.08.05-.14.05h-1.39c.02.19.09.34.21.45s.29.16.5.16c.11,0,.21-.01.3-.03s.17-.05.25-.09c.02-.01.05-.02.07-.02.04,0,.08.01.11.05.03.03.05.07.05.11,0,.06-.04.11-.11.15-.11.06-.21.11-.32.14-.1.03-.24.05-.4.05-.33,0-.59-.1-.78-.29ZM25.23,58.05c0-.13-.04-.25-.1-.34-.06-.09-.14-.16-.23-.2-.09-.04-.18-.06-.27-.06s-.18.02-.27.06c-.09.04-.17.11-.23.2-.06.09-.09.2-.1.34h1.21Z"/><path class="cls-12" d="M27.43,59.22s-.05-.07-.05-.12.02-.09.05-.13c.03-.03.07-.05.12-.05h.49v-2.08l-.42.2s-.07.03-.09.03c-.05,0-.09-.02-.13-.05s-.05-.08-.05-.13c0-.08.04-.13.11-.17l.56-.29s.08-.03.11-.03h.09c.05,0,.1.02.14.06s.06.09.06.14v2.32h.41s.09.02.13.05.05.08.05.13-.02.09-.05.12c-.03.03-.08.05-.13.05h-1.27s-.09-.02-.12-.05Z"/><path class="cls-26" d="M30.15,59.26c-.11-.03-.22-.08-.32-.13-.02-.01-.04-.03-.06-.06-.02-.03-.02-.06-.02-.09,0-.04.02-.08.05-.12.03-.03.07-.05.12-.05.02,0,.05,0,.07.01.17.08.35.12.54.12.31,0,.53-.11.65-.32.13-.22.2-.46.21-.73-.08.1-.19.19-.33.26s-.31.1-.51.1c-.19,0-.35-.04-.49-.12s-.25-.19-.33-.34-.12-.31-.12-.51c0-.17.04-.33.12-.47s.2-.25.35-.34.33-.12.54-.12c.75,0,1.12.49,1.12,1.47,0,.24-.04.47-.12.69-.08.22-.21.41-.38.56-.18.15-.41.22-.69.22-.15,0-.29-.02-.4-.05ZM31.36,57.47c-.07-.5-.32-.75-.75-.75-.13,0-.24.03-.33.08-.1.05-.17.13-.22.22-.05.09-.08.19-.08.29,0,.19.05.33.16.45s.26.17.45.17c.35,0,.61-.15.77-.45Z"/><path class="cls-31" d="M32.22,57.84c0-.24.04-.47.12-.69.08-.22.21-.41.38-.56.18-.15.41-.22.69-.22.15,0,.29.02.4.05.11.03.22.08.32.13.02.01.04.03.06.06.02.03.02.06.02.09,0,.04-.02.08-.05.12-.03.03-.07.05-.12.05-.02,0-.05,0-.07-.01-.17-.08-.35-.12-.54-.12-.31,0-.53.11-.65.32-.13.22-.2.46-.21.73.08-.1.19-.19.33-.26s.31-.1.51-.1c.19,0,.35.04.49.12s.25.19.33.34.12.31.12.51c0,.17-.04.33-.12.47s-.2.25-.35.34c-.15.08-.33.12-.54.12-.75,0-1.12-.49-1.12-1.47ZM33.68,58.88c.1-.05.17-.13.22-.21.05-.09.08-.19.08-.3,0-.19-.05-.33-.16-.45-.1-.11-.26-.17-.45-.17-.35,0-.61.15-.77.45.07.5.32.75.75.75.13,0,.24-.03.33-.08Z"/><path class="cls-35" d="M36.2,59.23s-.05-.08-.05-.13v-.56h-1.25c-.07,0-.12-.02-.17-.07-.05-.05-.07-.1-.07-.17v-.04c0-.06.02-.11.05-.15l1.29-1.64s.05-.05.09-.07c.04-.02.08-.03.12-.03h.08c.07,0,.13.02.17.07.04.05.07.1.07.17v1.59h.31s.09.02.12.05c.03.03.05.07.05.12s-.02.09-.05.12c-.03.03-.07.05-.12.05h-.31v.56c0,.05-.02.1-.06.13-.04.04-.08.05-.13.05s-.1-.02-.13-.05ZM35.05,58.21h1.09v-1.41l-1.09,1.41Z"/></svg>