<svg xmlns="http://www.w3.org/2000/svg" width="110.008" height="27.002" viewBox="0 0 110.008 27.002">
  <path id="パス_23236" data-name="パス 23236" d="M26.219,95.774a42.071,42.071,0,0,0-5.341,3.8,1.4,1.4,0,0,1-.444.322.9.9,0,0,0-.347.249c-.138.138-.777.652-1.429,1.137s-1.262.971-1.359,1.068a.688.688,0,0,1-.278.18,1.494,1.494,0,0,0-.444.322c-.4.375-4.162,3.274-5.049,3.9a6.307,6.307,0,0,0-.707.569,5.918,5.918,0,0,1-1.429,1.04c-.18,0-.3.68-.18.985a19.788,19.788,0,0,0,2.511,2.067,28.113,28.113,0,0,1,2.47,1.956.214.214,0,0,0,.18.125,7.481,7.481,0,0,1,1.277.9c1.346,1.082.957.777,3.427,2.622,1.11.833,2.081,1.582,2.15,1.679a6.916,6.916,0,0,0,.693.527,9.809,9.809,0,0,1,1.11.846,2.933,2.933,0,0,0,.652.5.609.609,0,0,1,.278.18,8.045,8.045,0,0,0,1.442,1.068.687.687,0,0,1,.322.194,3.573,3.573,0,0,0,1.11.347,4.1,4.1,0,0,0,4.716-2.608,4.246,4.246,0,0,0,0-2.927,6.205,6.205,0,0,0-1.235-1.8,1.746,1.746,0,0,1-.5-.347c-.222-.194-.652-.527-.957-.735a9.72,9.72,0,0,1-.818-.611,9.873,9.873,0,0,0-.833-.624c-.322-.222-.915-.652-1.331-.985-.874-.68-.818-.638-1.734-1.318-.375-.278-.749-.555-.833-.624s-.818-.624-1.664-1.248c-3.121-2.333-3.676-2.774-3.676-3,0-.1.278-.375.624-.624a9.312,9.312,0,0,0,.791-.611,7.514,7.514,0,0,1,.68-.513c.541-.375.944-.68,2.248-1.706.944-.735,1.287-.8,1.484-.3a4.88,4.88,0,0,0,2.011,1.859,4.827,4.827,0,0,0,3.274.027,4.84,4.84,0,0,0,2.081-1.845c.291-.527.333-.777.333-2.053,0-1.429-.014-1.47-.483-2.178a4.279,4.279,0,0,0-4.786-1.8ZM2.927,95.83c-.805.139-2.445,1.429-2.445,1.928a1.146,1.146,0,0,1-.236.375C.014,98.382,0,99.1,0,109.117S.014,119.854.236,120.1a.921.921,0,0,1,.249.416,4.682,4.682,0,0,0,1.553,1.457,10.908,10.908,0,0,0,1.262.471,1.994,1.994,0,0,0,1.6,0,4.113,4.113,0,0,0,2.788-2.026l.5-.763V98.715l-.322-.638a4.392,4.392,0,0,0-1.706-1.859A2.838,2.838,0,0,0,4.466,95.8a9.944,9.944,0,0,0-1.54.027Zm34.043.027a4.213,4.213,0,0,0-2.333,1.8l-.513.777V119.8l.513.763a4.424,4.424,0,0,0,2.069,1.665,2.786,2.786,0,0,1,.763.222c.5.208.611.208,1.512-.014a6.113,6.113,0,0,0,1.318-.471,5.241,5.241,0,0,0,1.651-1.859c.291-.6.291-.724.291-11.029,0-9.627-.014-10.458-.236-10.945A5.786,5.786,0,0,0,40.4,96.288a.792.792,0,0,1-.375-.208,6.693,6.693,0,0,0-3.052-.222Zm9.586.322a4.949,4.949,0,0,0-2.067,2.067,5.127,5.127,0,0,0-.014,3.552,4.717,4.717,0,0,0,1.72,1.873,8.29,8.29,0,0,0,2.092.666,7.689,7.689,0,0,0,1.859-.569,4.171,4.171,0,0,1,.5-.249,2.5,2.5,0,0,0,.693-.666,3.177,3.177,0,0,0,.971-2.735,5.3,5.3,0,0,1,.153-1.484,10.179,10.179,0,0,1,2.137-.1l2,.042.08,10.2c.069,10.543.111,11.14.652,11.68a.554.554,0,0,1,.167.278c0,.138.375.513.971.971a5.489,5.489,0,0,0,2.705.9,4.893,4.893,0,0,0,2.885-1.5c1.026-1.193.985-.846,1.026-9.267a76.808,76.808,0,0,1,.194-7.741c.125-.138,1.082-.18,4.634-.18,4.148,0,4.522-.014,5.091-.278a4.411,4.411,0,0,0,1.873-1.689c.347-.555.375-.708.375-1.984a3.547,3.547,0,0,0-.3-1.956,4.424,4.424,0,0,0-1.886-1.775l-.68-.36L60.77,95.89c-13.3.014-13.623.014-14.219.291Zm35.361.069a4.1,4.1,0,0,0-2.053,4.883A4.543,4.543,0,0,0,82,103.656a5.127,5.127,0,0,0,3.552,0,4.762,4.762,0,0,0,2.441-4.245l-.042-.693,5.965-.069c3.288-.042,6.049-.042,6.146-.014a.281.281,0,0,1,.167.249c0,.291-.333.582-3.4,3.024-.833.666-1.775,1.415-2.081,1.664s-1.235,1-2.081,1.664-1.748,1.388-2.011,1.6-1.04.833-1.734,1.373-1.373,1.1-1.54,1.221-.483.4-.735.6-.693.541-.971.763-.777.638-1.126.9-.846.666-1.126.9a15.409,15.409,0,0,1-1.689,1.318,2.16,2.16,0,0,0-.513.43,1.939,1.939,0,0,1-.555.471,4.711,4.711,0,0,0-1.72,2.525,2.454,2.454,0,0,0,.014,1.8,2.993,2.993,0,0,0,1.166,1.97c1.193,1.179.444,1.126,14.372,1.126,12.042,0,12.222,0,12.86-.291a4.726,4.726,0,0,0,2.011-1.72c.333-.513.36-.666.36-2.026,0-1.221-.042-1.528-.236-1.748a.921.921,0,0,1-.249-.416c0-.278-1.248-1.262-1.915-1.528-.582-.222-1.277-.249-6.686-.322-5.6-.069-6.033-.08-6.076-.322a.3.3,0,0,1,.208-.333,1.536,1.536,0,0,0,.444-.291c.111-.111,1.055-.846,2.081-1.637,3.19-2.428,5.341-4.092,5.631-4.328.153-.125.43-.333.624-.458a7.856,7.856,0,0,0,.693-.541c.194-.167,1.193-.957,2.219-1.734,2.455-1.845,3.052-2.511,3.371-3.745a2.371,2.371,0,0,0,.014-1.72,3.861,3.861,0,0,0-2.192-2.844l-.68-.36-12.222.014L82.538,95.9Z" transform="translate(0 -95.612)" fill="#418ac9"/>
</svg>
