<svg width="512" height="226" viewBox="0 0 512 226" fill="none" xmlns="http://www.w3.org/2000/svg">
<path d="M24.7628 192.582C22.2901 191.518 19.5291 190.895 16.7681 190.895C14.0678 190.895 10.5787 192.08 10.5787 196.365C10.5787 203.187 27.8121 200.315 27.8121 213.518C27.8121 222.148 21.0006 225.415 13.0514 225.415C8.77343 225.415 6.86198 224.853 2.9784 223.895L3.70657 216.785C6.40687 218.243 9.5016 219.216 12.5963 219.216C15.5849 219.216 19.5746 217.696 19.5746 214.141C19.5746 206.636 2.34125 209.735 2.34125 196.714C2.34125 187.917 9.15268 184.696 16.0855 184.696C19.4684 184.696 22.6238 185.152 25.491 186.109L24.7628 192.582Z" fill="#003674"/>
<path d="M48.9138 219.535C54.7088 219.535 56.241 214.354 56.241 209.492C56.241 205.04 53.8745 200.862 48.9138 200.862C44.0138 200.862 41.6473 205.147 41.6473 209.492C41.6473 214.293 43.1643 219.535 48.9138 219.535ZM48.9138 194.997C57.5305 194.997 64.1144 200.801 64.1144 210.388C64.1144 218.73 58.5469 225.384 48.9138 225.384C39.3414 225.384 33.7588 218.73 33.7588 210.388C33.7588 200.816 40.3578 194.997 48.9138 194.997Z" fill="#003674"/>
<path d="M79.1477 182.432H71.6081V224.731H79.1477V182.432Z" fill="#003674"/>
<path d="M115.086 224.731H107.926V220.781H107.82C105.514 223.607 102.252 225.4 98.3081 225.4C91.436 225.4 88.4475 220.553 88.4475 214.004V195.681H95.9871V211.194C95.9871 214.749 96.0478 219.535 100.887 219.535C106.348 219.535 107.532 213.609 107.532 209.887V195.681H115.071L115.086 224.731Z" fill="#003674"/>
<path d="M126.692 201.212H121.109V195.681H126.692V189.877L134.231 187.446V195.681H140.937V201.212H134.231V214.749C134.231 217.225 134.899 219.55 137.781 219.55C139.131 219.55 140.421 219.261 141.21 218.76L141.437 224.731C139.859 225.187 138.115 225.415 135.855 225.415C129.938 225.415 126.677 221.753 126.677 215.995V201.212H126.692Z" fill="#003674"/>
<path d="M147.687 224.731H155.226V195.681H147.687V224.731ZM147.687 190.378H155.226V183.161H147.687V190.378Z" fill="#003674"/>
<path d="M177.876 219.535C183.671 219.535 185.203 214.354 185.203 209.492C185.203 205.04 182.836 200.862 177.876 200.862C172.976 200.862 170.609 205.147 170.609 209.492C170.609 214.293 172.126 219.535 177.876 219.535ZM177.876 194.997C186.492 194.997 193.076 200.801 193.076 210.388C193.076 218.73 187.494 225.384 177.876 225.384C168.303 225.384 162.721 218.73 162.721 210.388C162.736 200.817 169.32 194.997 177.876 194.997Z" fill="#003674"/>
<path d="M200.404 195.681H207.549V199.631H207.655C210.021 196.304 213.222 195.013 217.167 195.013C224.039 195.013 227.027 199.859 227.027 206.408V224.731H219.488V209.218C219.488 205.663 219.427 200.877 214.588 200.877C209.126 200.877 207.943 206.803 207.943 210.525V224.731H200.404V195.681Z" fill="#003674"/>
<path d="M253.454 201.774C251.148 200.984 249.449 200.528 246.703 200.528C244.67 200.528 242.258 201.257 242.258 203.749C242.258 208.368 255.381 205.435 255.381 215.934C255.381 222.71 249.358 225.415 243.214 225.415C240.347 225.415 237.419 224.913 234.658 224.169L235.113 217.97C237.48 219.155 239.952 219.884 242.547 219.884C244.458 219.884 247.507 219.155 247.507 216.329C247.507 210.631 234.385 214.521 234.385 204.037C234.385 197.778 239.846 195.013 245.763 195.013C249.312 195.013 251.618 195.575 253.985 196.091L253.454 201.774Z" fill="#003674"/>
<path d="M270.52 216.83H262.632V224.731H270.52V216.83Z" fill="#003674"/>
<path d="M297.432 185.364V224.731H305.321V207.471H318.61V201.257H305.321V191.563H319.278V185.364H297.432Z" fill="#003674"/>
<path d="M339.621 219.534C345.416 219.534 346.948 214.353 346.948 209.491C346.948 205.04 344.581 200.862 339.621 200.862C334.721 200.862 332.354 205.146 332.354 209.491C332.354 214.293 333.871 219.534 339.621 219.534ZM339.621 194.997C348.237 194.997 354.821 200.801 354.821 210.388C354.821 218.729 349.254 225.384 339.621 225.384C330.048 225.384 324.466 218.729 324.466 210.388C324.466 200.816 331.05 194.997 339.621 194.997Z" fill="#003674"/>
<path d="M362.315 195.681H369.021V202.275H369.127C369.461 199.57 372.571 194.997 377.076 194.997C377.804 194.997 378.593 194.997 379.382 195.225V202.837C378.699 202.442 377.349 202.214 375.999 202.214C369.855 202.214 369.855 209.886 369.855 214.049V224.715H362.315V195.681Z" fill="#003674"/>
<path d="M403.199 185.364V224.731H426.334V218.517H411.073V185.364H403.199Z" fill="#003674"/>
<path d="M432.25 224.731H439.79V195.681H432.25V224.731ZM432.25 190.378H439.79V183.161H432.25V190.378Z" fill="#003674"/>
<path d="M445.327 201.212V195.681H450.894V191.625C450.894 185.821 454.156 181.749 460.133 181.749C462.044 181.749 464.183 182.037 465.655 182.372L465.033 188.631C464.35 188.236 463.395 187.613 461.771 187.613C459.238 187.613 458.449 189.816 458.449 192.065V195.681H465.033V201.212H458.449V224.731H450.91V201.212H445.327Z" fill="#003674"/>
<path d="M489.639 207.35C489.412 203.688 487.728 200.528 483.495 200.528C479.278 200.528 477.124 203.46 476.79 207.35H489.639ZM494.706 223.09C491.945 224.609 488.79 225.399 484.739 225.399C475.167 225.399 469.584 219.869 469.584 210.343C469.584 201.941 474.029 194.997 483.04 194.997C493.796 194.997 496.83 202.381 496.83 212.531H476.775C477.108 217.21 480.385 219.869 485.058 219.869C488.714 219.869 491.869 218.517 494.691 216.937V223.09H494.706Z" fill="#003674"/>
<path d="M512 216.83H504.111V224.731H512V216.83Z" fill="#003674"/>
<path d="M430.427 101.988H452.872C462.535 101.988 466.549 99.756 466.549 90.6891C466.549 81.4732 463.129 80.1363 453.468 80.1363H430.427V101.988ZM430.425 59.4728H451.831C462.235 59.4728 464.763 57.6892 464.763 48.7697C464.763 42.0819 463.723 39.5538 455.397 39.2576H430.425V59.4728ZM400.696 14.875H459.265C481.413 14.875 494.494 19.0363 494.494 43.4173C494.494 57.5403 491.67 67.3036 476.954 69.6827V69.8106C493.453 70.8513 496.279 81.3228 496.279 95.297C496.279 122.648 483.494 126.366 459.859 126.366H400.696V14.875Z" fill="url(#paint0_linear_1_96)"/>
<path d="M252.25 14.8599L223.822 56.6004H223.559L223.565 14.8599H193.755V126.382H223.565L223.552 83.0568L223.876 83.0538L254.635 126.382H291.6L248.972 69.5804L288.321 14.8599H252.25Z" fill="url(#paint1_linear_1_96)"/>
<path d="M344.974 58.5299C377.732 61.467 385.787 65.7455 385.343 91.1552C385.023 109.473 385.447 130.077 336.691 129.226C308.47 128.734 289.717 125.247 290.351 88.9054L318.719 88.9205C318.518 100.443 322.634 102.177 337.113 102.433C351.002 102.674 355.597 101.867 355.758 92.5599C355.927 82.9576 354.298 83.0779 340.426 81.9469L333.932 81.3905C306.634 78.9948 290.673 78.8625 291.23 47.1003C291.784 15.3397 309.697 11.6567 338.656 12.162C362.885 12.5861 383.564 15.3156 383.03 45.8972L382.949 50.4766L354.581 50.4826C354.781 39.1056 350.051 38.5236 338.232 38.3191C322.276 38.0394 320.888 41.2667 320.781 47.4718C320.626 56.3357 324.906 56.7042 332.726 57.432L344.974 58.5299Z" fill="url(#paint2_linear_1_96)"/>
<path d="M24.6006 35.8181C24.6006 29.6206 29.6236 24.5976 35.8211 24.5976H113.291C119.489 24.5976 124.511 29.6221 124.511 35.8181V105.418C124.511 111.616 119.489 116.639 113.291 116.639H103.65V141.241H115.598C134.108 141.241 149.112 126.235 149.112 107.725V33.5157C149.112 15.0058 134.108 0 115.598 0H33.5142C15.0043 0 0 15.0058 0 33.5157V46.4988L12.3003 38.4409L24.6006 46.4988V35.8181Z" fill="url(#paint3_linear_1_96)"/>
<path d="M24.6006 104.242C24.6006 111.089 30.1515 116.64 36.9987 116.64C43.8459 116.64 49.3967 111.089 49.3967 104.242C49.3967 97.3949 43.8459 91.844 36.9987 91.844H30.0943V67.2419H36.9987C57.4335 67.2419 73.9989 83.8072 73.9989 104.242C73.9989 124.677 57.4335 141.242 36.9987 141.242C16.5638 141.242 0 124.677 0 104.242V52.2932L12.3003 44.2655L24.6006 52.2932V104.242Z" fill="url(#paint4_linear_1_96)"/>
<path d="M99.0581 116.64V141.241H56.5973V140.946C56.5973 140.946 71.8844 134.386 77.4262 116.64H99.0581Z" fill="#0066B3"/>
<path d="M223.559 56.6004H223.822L225.383 59.5525H220.607L223.559 56.6004Z" fill="#CDCFD0"/>
<path d="M223.552 83.0568L223.877 83.0538L225.391 80.0852L220.6 80.1348L223.552 83.0568Z" fill="black"/>
<path d="M223.565 14.8599H193.755L196.707 17.8121H220.613L223.565 14.8599Z" fill="#D5D7D8"/>
<path d="M288.321 14.8599H252.25L253.811 17.8121H282.561L288.321 14.8599Z" fill="#D5D7D8"/>
<path d="M223.565 126.382H193.755L196.707 123.43H220.613L223.565 126.382Z" fill="black"/>
<path d="M291.6 126.382H254.635L256.159 123.43H285.694L291.6 126.382Z" fill="black"/>
<path d="M223.876 83.0538L254.635 126.382L256.159 123.43L225.391 80.0852L223.876 83.0538Z" fill="black"/>
<path d="M223.565 126.382L223.552 83.0568L220.6 80.1348L220.613 123.43L223.565 126.382Z" fill="#B1B3B6"/>
<path d="M193.755 126.382V14.8599L196.707 17.8121V123.43L193.755 126.382Z" fill="black"/>
<path d="M245.308 69.6181L285.694 123.43L291.6 126.382L248.972 69.5805L245.308 69.6181Z" fill="#C4C6C8"/>
<path d="M288.321 14.8599L248.972 69.5804L245.308 69.618L282.561 17.8121L288.321 14.8599Z" fill="url(#paint5_linear_1_96)"/>
<path d="M223.822 56.6004L252.25 14.8599L253.811 17.8121L225.383 59.5525L223.822 56.6004Z" fill="url(#paint6_linear_1_96)"/>
<path d="M223.559 56.6004L223.565 14.8599L220.613 17.8121L220.607 59.5525L223.559 56.6004Z" fill="url(#paint7_linear_1_96)"/>
<path d="M382.95 50.4751L383.032 45.8957C383.565 15.3141 362.887 12.5846 338.658 12.1605C337.137 12.1334 335.65 12.1184 334.191 12.1184V15.0705C335.579 15.0705 337.023 15.084 338.605 15.1111C343.833 15.2028 349.923 15.4074 355.453 16.2285C360.932 17.0436 365.26 18.373 368.686 20.292C372.47 22.4125 375.216 25.2879 377.079 29.0822C378.1 31.1606 378.87 33.5638 379.368 36.2242C379.9 39.0711 380.14 42.3074 380.078 45.8416L380.048 47.5214L382.95 50.4751Z" fill="#D5D7D8"/>
<path d="M382.95 50.475L354.582 50.4811L357.465 47.5289L380.049 47.5244L382.95 50.475Z" fill="black"/>
<path d="M354.583 50.4811C354.783 39.1041 350.053 38.5221 338.234 38.3176L338.285 35.3655C340.983 35.4121 343.813 35.4828 346.167 35.7745C348.845 36.1069 350.839 36.7145 352.443 37.683C353.403 38.2635 354.237 38.9898 354.918 39.841C355.595 40.6862 356.145 41.6833 356.55 42.8052C356.929 43.8519 357.192 45.0114 357.353 46.3469C357.399 46.7274 357.435 47.1214 357.465 47.5289L354.583 50.4811Z" fill="black"/>
<path d="M344.974 58.5299L332.728 57.429C327.252 56.9192 323.514 56.5869 321.816 53.3911C321.088 52.0226 320.736 50.1277 320.783 47.4688C320.886 41.5119 322.168 38.2996 336.393 38.2996C336.984 38.2996 337.599 38.3056 338.234 38.3161L338.285 35.364C337.634 35.3519 336.998 35.3474 336.391 35.3474C332.693 35.3474 329.761 35.558 327.427 35.9926C324.926 36.4573 323.002 37.2017 321.545 38.2695C320.769 38.8395 320.109 39.5132 319.584 40.2742C319.101 40.9735 318.719 41.7705 318.447 42.6398C317.949 44.2294 317.856 45.9468 317.83 47.4176C317.785 49.9788 318.079 52.0391 318.724 53.7129C319.079 54.6303 319.549 55.4559 320.125 56.1673C320.691 56.8651 321.371 57.4726 322.15 57.9719C323.408 58.7795 324.936 59.3315 326.958 59.7074C328.579 60.0082 330.34 60.1721 332.379 60.3616L332.456 60.3691H332.465L344.712 61.47C353.71 62.2761 359.818 63.1107 364.514 64.1725C367.105 64.759 369.274 65.4147 371.148 66.1772C373.001 66.9321 374.529 67.7773 375.822 68.7623C377.079 69.7203 378.102 70.8046 378.947 72.0739C379.807 73.3657 380.479 74.8456 381.004 76.5976C382.063 80.1333 382.505 84.7427 382.395 91.1026L385.348 91.1537C385.787 65.7455 377.733 61.467 344.974 58.5299Z" fill="url(#paint8_linear_1_96)"/>
<path d="M382.392 91.1041C382.388 91.3884 382.382 91.6741 382.377 91.9599C382.305 96.255 382.23 100.697 381.495 104.785C381.113 106.91 380.588 108.766 379.89 110.461C379.124 112.321 378.169 113.942 376.971 115.419C376.336 116.2 375.626 116.944 374.858 117.633C374.05 118.356 373.152 119.042 372.188 119.672C370.112 121.027 367.624 122.19 364.791 123.123C361.702 124.143 358.103 124.927 354.095 125.453C349.808 126.015 344.92 126.301 339.566 126.301V129.253C385.427 129.253 385.029 109.107 385.343 91.1568L382.392 91.1041Z" fill="url(#paint9_linear_1_96)"/>
<path d="M290.353 88.9054C289.718 125.247 308.472 128.736 336.692 129.226C337.671 129.243 338.628 129.252 339.568 129.252V126.3C338.646 126.3 337.697 126.291 336.743 126.274C330.813 126.17 323.944 125.93 317.948 124.918C315.111 124.439 312.655 123.829 310.44 123.05C308.117 122.232 306.124 121.254 304.35 120.06C302.509 118.821 300.96 117.388 299.614 115.678C298.922 114.798 298.281 113.835 297.708 112.816C297.117 111.763 296.579 110.614 296.108 109.4C295.125 106.863 294.391 103.914 293.926 100.636C293.55 97.9829 293.34 95.0398 293.296 91.8576L290.353 88.9054Z" fill="black"/>
<path d="M290.353 88.9054L318.721 88.9205L315.821 91.8711L293.297 91.8591L290.353 88.9054Z" fill="#B1B3B6"/>
<path d="M318.721 88.9205C318.519 100.443 322.635 102.177 337.115 102.433L337.064 105.385C329.377 105.25 324.245 104.71 320.757 102.347C319.772 101.681 318.928 100.866 318.246 99.929C317.584 99.0191 317.053 97.9573 316.666 96.7753C316.212 95.3872 315.936 93.7916 315.821 91.8726L318.721 88.9205Z" fill="url(#paint10_linear_1_96)"/>
<path d="M355.76 92.5599C355.613 101.054 351.775 102.466 340.55 102.466C339.474 102.466 338.328 102.452 337.113 102.431L337.062 105.384C338.404 105.406 339.544 105.418 340.548 105.418C343.803 105.418 346.113 105.301 348.039 105.038C350.471 104.705 352.306 104.132 353.816 103.236C354.683 102.72 355.444 102.087 356.076 101.356C356.704 100.627 357.225 99.7785 357.622 98.8326C357.989 97.9558 358.255 96.9994 358.437 95.9075C358.601 94.9195 358.691 93.8427 358.712 92.6125L355.76 92.5599Z" fill="url(#paint11_linear_1_96)"/>
<path d="M355.76 92.5599C355.928 82.9576 354.3 83.0779 340.428 81.9469L333.934 81.3905C306.635 78.9948 290.675 78.8625 291.231 47.1003L294.183 47.1514C294.12 50.7683 294.282 54.0317 294.664 56.8515C295.028 59.5345 295.607 61.9226 296.383 63.9484C297.116 65.8613 298.02 67.4735 299.145 68.8766C300.206 70.2016 301.446 71.3144 302.933 72.2784C309.12 76.2893 318.847 77.127 331.162 78.1857C332.146 78.2699 333.164 78.3571 334.19 78.4474L340.676 79.0023C341.028 79.0309 341.372 79.0595 341.709 79.0865C344.98 79.3512 347.564 79.5618 349.63 79.8836C350.793 80.0641 351.76 80.2776 352.587 80.5348C353.596 80.8476 354.441 81.2386 355.169 81.7289C356.765 82.8026 357.783 84.3381 358.285 86.4225C358.641 87.9023 358.765 89.695 358.714 92.6095L355.76 92.5599Z" fill="black"/>
<path d="M291.231 47.1003C291.756 17.006 307.867 12.1198 334.191 12.1198V15.072C326.997 15.072 321.523 15.4495 316.964 16.2601C311.857 17.1684 307.84 18.6437 304.688 20.7717C301.345 23.0276 298.889 26.0774 297.179 30.0943C296.262 32.2494 295.547 34.7338 295.053 37.4799C294.537 40.3478 294.244 43.6008 294.182 47.1514L291.231 47.1003Z" fill="url(#paint12_linear_1_96)"/>
<path d="M400.696 126.366V14.875L403.647 17.8271V123.414L400.696 126.366Z" fill="black"/>
<path d="M400.696 14.875H459.265C481.413 14.875 494.494 19.0363 494.494 43.4173H491.542C491.542 40.5705 491.351 37.9627 490.975 35.6678C490.617 33.4811 490.078 31.5065 489.373 29.7951C488.071 26.6309 486.158 24.2277 483.529 22.4471C481.008 20.7402 477.759 19.5521 473.596 18.8122C469.81 18.1399 465.257 17.8271 459.264 17.8271H403.647L400.696 14.875Z" fill="#D5D7D8"/>
<path d="M430.427 39.256V59.4728L427.475 62.425V36.3039L430.427 39.256Z" fill="#CDCFD0"/>
<path d="M430.427 80.1363V101.988L427.475 104.94V77.1841L430.427 80.1363Z" fill="#B1B3B6"/>
<path d="M430.427 80.1363H453.468C463.129 80.1363 466.549 81.4732 466.549 90.689H469.501C469.501 87.9956 469.235 85.9398 468.666 84.2223C468.343 83.2463 467.908 82.365 467.376 81.6056C466.821 80.8145 466.143 80.1257 465.357 79.5603C464.619 79.0279 463.798 78.6038 462.847 78.2639C462.016 77.9661 461.103 77.7406 460.056 77.5721C458.373 77.3029 456.343 77.1826 453.469 77.1826H427.475L430.427 80.1363Z" fill="black"/>
<path d="M430.427 101.988H452.872C462.535 101.988 466.549 99.756 466.549 90.6891H469.501C469.501 93.3194 469.191 95.4714 468.552 97.2686C468.2 98.2581 467.738 99.162 467.18 99.953C466.607 100.764 465.917 101.481 465.127 102.086C463.688 103.186 461.903 103.941 459.671 104.393C457.82 104.767 455.659 104.941 452.874 104.941H427.475L430.427 101.988Z" fill="url(#paint13_linear_1_96)"/>
<path d="M430.427 39.256H455.399C463.723 39.5523 464.765 42.0803 464.765 48.7681H467.717C467.717 46.6462 467.613 45.2039 467.371 43.9437C467.034 42.1931 466.401 40.8005 465.437 39.6847C464.404 38.4891 463.028 37.6439 461.228 37.101C459.713 36.6438 457.895 36.3911 455.504 36.3054L455.399 36.3039H427.475L430.427 39.256Z" fill="black"/>
<path d="M430.427 59.4728H451.832C462.235 59.4728 464.763 57.6892 464.763 48.7696H467.716C467.716 51.4015 467.504 53.3836 467.048 55.0033C466.771 55.9898 466.406 56.8455 465.932 57.6185C465.427 58.4427 464.795 59.1645 464.054 59.7631C463.347 60.3331 462.518 60.8113 461.587 61.1813C460.753 61.5136 459.829 61.7693 458.764 61.9603C456.981 62.2821 454.842 62.425 451.83 62.425H427.475L430.427 59.4728Z" fill="url(#paint14_linear_1_96)"/>
<path d="M476.952 69.8121V69.6827L474 67.1697V72.5837L476.952 69.8121Z" fill="#B1B3B6"/>
<path d="M476.953 69.6827C491.67 67.3036 494.492 57.5388 494.492 43.4173H491.54C491.54 47.1139 491.334 50.1352 490.91 52.6542C490.445 55.4183 489.712 57.6591 488.671 59.5014C487.593 61.4098 486.171 62.9017 484.328 64.0642C483.338 64.6883 482.203 65.2267 480.951 65.6658C479.622 66.1336 478.118 66.505 476.48 66.7697L473.999 67.1712L476.953 69.6827Z" fill="url(#paint15_linear_1_96)"/>
<path d="M476.952 69.8121C493.452 70.8528 496.277 81.3243 496.277 95.2985H493.325C493.325 91.5403 493.118 88.6107 492.671 86.0811C492.179 83.2899 491.4 81.0582 490.289 79.255C489.123 77.3631 487.58 75.9344 485.57 74.8877C484.469 74.3147 483.203 73.847 481.805 73.4981C480.308 73.1236 478.611 72.8755 476.766 72.7597L474 72.5852L476.952 69.8121Z" fill="url(#paint16_linear_1_96)"/>
<path d="M400.696 126.366H459.859C483.494 126.366 496.279 122.648 496.279 95.297H493.327C493.327 98.5363 493.137 101.485 492.763 104.06C492.403 106.533 491.859 108.752 491.148 110.658C490.468 112.477 489.642 114.022 488.626 115.377C487.66 116.664 486.549 117.746 485.228 118.678C483.932 119.595 482.467 120.347 480.753 120.976C479.07 121.594 477.196 122.075 475.023 122.448C472.967 122.802 470.681 123.048 468.036 123.206C465.679 123.346 463.005 123.414 459.861 123.414H403.65L400.696 126.366Z" fill="url(#paint17_linear_1_96)"/>
<path d="M12.3003 34.9113L2.95214 41.0352L0 46.4988L12.3003 38.441V34.9113Z" fill="#58595B"/>
<path d="M21.6485 41.0352L12.3003 34.9113V38.441L24.6006 46.4988L21.6485 41.0352Z" fill="black"/>
<path d="M2.95214 41.0351V33.5157C2.95214 31.4403 3.16117 29.3665 3.57324 27.3528C3.97478 25.3917 4.57333 23.4637 5.35234 21.6199C6.11782 19.8093 7.06527 18.0632 8.16912 16.43C9.26245 14.8103 10.5197 13.2884 11.9033 11.9048C13.2869 10.5212 14.8088 9.26549 16.4285 8.17066C18.0617 7.0668 19.8077 6.11934 21.6184 5.35387C23.4622 4.57485 25.3902 3.9748 27.3512 3.57477C29.3649 3.1627 31.4388 2.95366 33.5142 2.95366H73.9989V0.00152397H33.5142C15.0043 0.00152397 0 15.0073 0 33.5172V46.5003L2.95214 41.0351Z" fill="url(#paint18_linear_1_96)"/>
<path d="M12.3003 44.2655L0 52.2932L2.95214 53.8919L12.3003 47.7906V44.2655Z" fill="#00528A"/>
<path d="M12.3003 47.7906L21.6485 53.8919L24.6006 52.2932L12.3003 44.2655V47.7906Z" fill="#3B81C3"/>
<path d="M24.6006 104.242V52.2932L21.6484 53.8919V104.242H24.6006Z" fill="#3B81C3"/>
<path d="M21.6484 104.242C21.6484 106.313 22.0545 108.324 22.8561 110.219C23.6291 112.047 24.7359 113.688 26.1451 115.097C27.5542 116.506 29.195 117.613 31.0237 118.386C32.9186 119.188 34.9293 119.594 37.0001 119.594V116.642C30.1529 116.642 24.6021 111.091 24.6021 104.244H21.6484V104.242Z" fill="url(#paint19_linear_1_96)"/>
<path d="M36.9987 119.592C39.0695 119.592 41.0802 119.186 42.9751 118.385C44.8038 117.612 46.4446 116.505 47.8537 115.096C49.2629 113.687 50.3697 112.046 51.1427 110.217C51.9443 108.322 52.3504 106.311 52.3504 104.241C52.3504 102.17 51.9443 100.159 51.1427 98.2641C50.3697 96.4354 49.2629 94.7947 47.8537 93.3855C46.4446 91.9764 44.8038 90.8695 42.9751 90.0965C41.0802 89.295 39.0695 88.8889 36.9987 88.8889H33.0464L30.0943 91.841H36.9987C43.8459 91.841 49.3967 97.3919 49.3967 104.239C49.3967 111.086 43.8459 116.637 36.9987 116.637V119.592Z" fill="url(#paint20_linear_1_96)"/>
<path d="M30.0943 67.2419V91.8425L33.0464 88.8904V70.194L30.0943 67.2419Z" fill="black"/>
<path d="M33.0464 70.194H36.9987C39.3101 70.194 41.6201 70.4271 43.8639 70.8858C46.0491 71.3325 48.1981 72.0002 50.2509 72.868C52.2676 73.7207 54.2137 74.7764 56.0334 76.0066C57.8365 77.2247 59.5329 78.6249 61.0744 80.1663C62.6159 81.7078 64.0145 83.4042 65.2342 85.2074C66.4643 87.0271 67.5201 88.9731 68.3728 90.9898C69.242 93.0426 69.9083 95.1917 70.3549 97.3768C70.8136 99.6206 71.0467 101.929 71.0467 104.242C71.0467 106.555 70.8136 108.864 70.3549 111.107C69.9083 113.293 69.2405 115.442 68.3728 117.494C67.5201 119.511 66.4643 121.457 65.2342 123.277C64.016 125.08 62.6159 126.776 61.0744 128.318C59.5329 129.859 57.8365 131.258 56.0334 132.478C54.2137 133.708 52.2676 134.764 50.2509 135.616C48.1981 136.485 46.0491 137.152 43.8639 137.598C41.6201 138.057 39.3116 138.29 36.9987 138.29V141.242C57.4335 141.242 73.9988 124.677 73.9988 104.242C73.9988 83.8072 57.4335 67.2419 36.9987 67.2419H30.0943L33.0464 70.194Z" fill="url(#paint21_linear_1_96)"/>
<path d="M77.4262 116.64C71.8844 134.386 56.5973 140.946 56.5973 140.946L66.138 138.289C66.3741 138.095 66.6117 137.896 66.8509 137.692C69.6556 135.294 72.1415 132.584 74.238 129.635C76.4442 126.534 78.2218 123.164 79.5377 119.592L77.4262 116.64Z" fill="#004579"/>
<path d="M79.5392 119.592H96.106L99.0582 116.64H77.4262L79.5392 119.592Z" fill="#3B81C3"/>
<path d="M96.1059 119.592V138.289L99.0581 141.241V116.64L96.1059 119.592Z" fill="#3B81C3"/>
<path d="M56.5973 140.946V141.241H99.0581L96.106 138.289H66.138L56.5973 140.946Z" fill="black"/>
<path d="M73.9988 21.6455H35.8211C33.9096 21.6455 32.0523 22.0199 30.3033 22.7598C28.616 23.4742 27.1 24.4953 25.7992 25.7962C24.4983 27.0971 23.4772 28.613 22.7628 30.3004C22.0229 32.0494 21.6484 33.9067 21.6484 35.8181V41.0351L24.6006 46.4987V35.8196C24.6006 29.6221 29.6236 24.5991 35.8211 24.5991H73.9988V21.6455Z" fill="url(#paint22_linear_1_96)"/>
<path d="M73.9989 24.5976H113.291C119.489 24.5976 124.512 29.6221 124.512 35.8181V70.6196H127.464V35.8181C127.464 33.9067 127.089 32.0494 126.349 30.3004C125.635 28.613 124.614 27.0971 123.313 25.7962C122.012 24.4953 120.496 23.4742 118.809 22.7598C117.06 22.0199 115.204 21.6455 113.291 21.6455H73.9989V24.5976Z" fill="black"/>
<path d="M103.651 141.241V116.64L106.603 119.592V138.289L103.651 141.241Z" fill="black"/>
<path d="M103.651 116.64H113.292C119.49 116.64 124.513 111.616 124.513 105.42V70.6212H127.465V105.42C127.465 107.331 127.091 109.188 126.351 110.937C125.636 112.625 124.615 114.141 123.314 115.442C122.013 116.742 120.498 117.764 118.81 118.478C117.061 119.218 115.205 119.592 113.292 119.592H106.603L103.651 116.64Z" fill="url(#paint23_linear_1_96)"/>
<path d="M73.9989 0H115.598C134.108 0 149.112 15.0058 149.112 33.5157V62.4129H146.16V33.5157C146.16 31.4403 145.951 29.3664 145.539 27.3527C145.137 25.3917 144.539 23.4637 143.76 21.6199C142.994 19.8092 142.047 18.0632 140.943 16.43C139.85 14.8103 138.592 13.2884 137.209 11.9048C135.825 10.5212 134.303 9.26546 132.684 8.17063C131.05 7.06678 129.304 6.11932 127.494 5.35384C125.65 4.57483 123.722 3.97478 121.761 3.57474C119.747 3.16268 117.673 2.95364 115.598 2.95364H73.9989V0Z" fill="url(#paint24_linear_1_96)"/>
<path d="M0 52.2932V104.241C0 124.675 16.5653 141.241 36.9987 141.241V138.289C34.6872 138.289 32.3772 138.056 30.1334 137.597C27.9483 137.15 25.7992 136.482 23.7464 135.615C21.7297 134.762 19.7837 133.706 17.964 132.476C16.1608 131.258 14.4644 129.858 12.9229 128.316C11.3814 126.775 9.98281 125.078 8.76316 123.275C7.53298 121.456 6.47725 119.51 5.62454 117.493C4.7553 115.44 4.08907 113.291 3.64242 111.106C3.18373 108.862 2.95063 106.554 2.95063 104.241V53.8919L0 52.2932Z" fill="black"/>
<path d="M146.16 62.4114V107.725C146.16 109.8 145.951 111.874 145.539 113.888C145.137 115.849 144.539 117.779 143.76 119.621C142.994 121.432 142.047 123.178 140.943 124.811C139.85 126.43 138.592 127.952 137.209 129.336C135.825 130.72 134.303 131.975 132.684 133.07C131.05 134.174 129.304 135.121 127.494 135.887C125.65 136.666 123.722 137.266 121.761 137.666C119.747 138.078 117.673 138.287 115.598 138.287H106.602L103.65 141.239H115.598C134.108 141.239 149.112 126.233 149.112 107.724V62.4114H146.16Z" fill="url(#paint25_linear_1_96)"/>
<defs>
<linearGradient id="paint0_linear_1_96" x1="412.914" y1="28.225" x2="488.79" y2="138.972" gradientUnits="userSpaceOnUse">
<stop stop-color="#C4C6C8"/>
<stop offset="0.22" stop-color="#C4C6C8"/>
<stop offset="1" stop-color="#58595B"/>
</linearGradient>
<linearGradient id="paint1_linear_1_96" x1="206.807" y1="135.523" x2="261.373" y2="36.7904" gradientUnits="userSpaceOnUse">
<stop stop-color="#58595B"/>
<stop offset="0.7" stop-color="#C4C6C8"/>
<stop offset="1" stop-color="#C4C6C8"/>
</linearGradient>
<linearGradient id="paint2_linear_1_96" x1="337.849" y1="141.047" x2="337.849" y2="50.8617" gradientUnits="userSpaceOnUse">
<stop stop-color="#58595B"/>
<stop offset="0.21" stop-color="#76787A"/>
<stop offset="0.69" stop-color="#BFC1C3"/>
<stop offset="0.72" stop-color="#C4C6C8"/>
<stop offset="1" stop-color="#C4C6C8"/>
</linearGradient>
<linearGradient id="paint3_linear_1_96" x1="123.277" y1="-14.2817" x2="49.0606" y2="115.05" gradientUnits="userSpaceOnUse">
<stop stop-color="#C4C6C8"/>
<stop offset="0.36" stop-color="#C4C6C8"/>
<stop offset="1" stop-color="#58595B"/>
</linearGradient>
<linearGradient id="paint4_linear_1_96" x1="45.0331" y1="80.2009" x2="8.3905" y2="110.829" gradientUnits="userSpaceOnUse">
<stop stop-color="#0066B3"/>
<stop offset="1" stop-color="#004884"/>
</linearGradient>
<linearGradient id="paint5_linear_1_96" x1="248.524" y1="67.2717" x2="282.908" y2="20.2586" gradientUnits="userSpaceOnUse">
<stop stop-color="#A7A9AC"/>
<stop offset="1" stop-color="#A7A9AC"/>
</linearGradient>
<linearGradient id="paint6_linear_1_96" x1="226.92" y1="54.0759" x2="251.412" y2="19.3442" gradientUnits="userSpaceOnUse">
<stop/>
<stop offset="0.17" stop-color="#161617"/>
<stop offset="0.39" stop-color="#3C3B3D"/>
<stop offset="0.64" stop-color="#565759"/>
<stop offset="0.9" stop-color="#757679"/>
<stop offset="1" stop-color="#808285"/>
</linearGradient>
<linearGradient id="paint7_linear_1_96" x1="222.087" y1="55.0329" x2="222.087" y2="19.887" gradientUnits="userSpaceOnUse">
<stop stop-color="#CDCFD0"/>
<stop offset="1" stop-color="#D5D7D8"/>
</linearGradient>
<linearGradient id="paint8_linear_1_96" x1="351.964" y1="38.0791" x2="351.74" y2="56.6709" gradientUnits="userSpaceOnUse">
<stop/>
<stop offset="0.1"/>
<stop offset="1" stop-color="#D5D7D8"/>
</linearGradient>
<linearGradient id="paint9_linear_1_96" x1="354.957" y1="125.931" x2="383.208" y2="100.956" gradientUnits="userSpaceOnUse">
<stop/>
<stop offset="0.11" stop-color="#141415"/>
<stop offset="0.25" stop-color="#373738"/>
<stop offset="0.4" stop-color="#525355"/>
<stop offset="0.57" stop-color="#6F7073"/>
<stop offset="0.73" stop-color="#909294"/>
<stop offset="0.9" stop-color="#BABCBE"/>
<stop offset="1" stop-color="#D5D7D8"/>
</linearGradient>
<linearGradient id="paint10_linear_1_96" x1="319.674" y1="97.1513" x2="334.639" y2="97.1513" gradientUnits="userSpaceOnUse">
<stop stop-color="#B1B3B6"/>
<stop offset="1" stop-color="#939598"/>
</linearGradient>
<linearGradient id="paint11_linear_1_96" x1="339.271" y1="104.349" x2="359.289" y2="96.1054" gradientUnits="userSpaceOnUse">
<stop stop-color="#939598"/>
<stop offset="0.26" stop-color="#939598"/>
<stop offset="0.4" stop-color="#848688"/>
<stop offset="0.69" stop-color="#5A5B5D"/>
<stop offset="0.95"/>
<stop offset="1"/>
</linearGradient>
<linearGradient id="paint12_linear_1_96" x1="294.737" y1="45.6806" x2="317.198" y2="17.6342" gradientUnits="userSpaceOnUse">
<stop/>
<stop offset="0.27" stop-color="#636467"/>
<stop offset="0.61" stop-color="#9EA0A3"/>
<stop offset="0.86" stop-color="#C6C8CA"/>
<stop offset="0.98" stop-color="#D5D7D8"/>
<stop offset="1" stop-color="#D5D7D8"/>
</linearGradient>
<linearGradient id="paint13_linear_1_96" x1="453.102" y1="98.1453" x2="464.532" y2="89.7936" gradientUnits="userSpaceOnUse">
<stop stop-color="#A7A9AC"/>
<stop offset="1"/>
</linearGradient>
<linearGradient id="paint14_linear_1_96" x1="447.881" y1="58.0625" x2="455.766" y2="44.9442" gradientUnits="userSpaceOnUse">
<stop stop-color="#BCBEC0"/>
<stop offset="0.12" stop-color="#B2B4B7"/>
<stop offset="0.32" stop-color="#999B9E"/>
<stop offset="0.6" stop-color="#737577"/>
<stop offset="0.93" stop-color="#2D2D2E"/>
<stop offset="1"/>
</linearGradient>
<linearGradient id="paint15_linear_1_96" x1="479.444" y1="69.1723" x2="493.67" y2="46.3492" gradientUnits="userSpaceOnUse">
<stop stop-color="#414042"/>
<stop offset="0.12" stop-color="#4E4F51"/>
<stop offset="0.36" stop-color="#6F7073"/>
<stop offset="0.68" stop-color="#9D9FA2"/>
<stop offset="1" stop-color="#D5D7D8"/>
</linearGradient>
<linearGradient id="paint16_linear_1_96" x1="482.285" y1="74.7839" x2="495.209" y2="88.562" gradientUnits="userSpaceOnUse">
<stop stop-color="#B1B3B6"/>
<stop offset="0.31" stop-color="#ADAFB2"/>
<stop offset="1" stop-color="#939598"/>
</linearGradient>
<linearGradient id="paint17_linear_1_96" x1="419.02" y1="142.515" x2="483.057" y2="93.1422" gradientUnits="userSpaceOnUse">
<stop/>
<stop offset="0.77"/>
<stop offset="0.92" stop-color="#727476"/>
<stop offset="1" stop-color="#939598"/>
</linearGradient>
<linearGradient id="paint18_linear_1_96" x1="2.25207" y1="45.297" x2="37.2653" y2="10.9386" gradientUnits="userSpaceOnUse">
<stop/>
<stop offset="0.12" stop-color="#141415"/>
<stop offset="0.26" stop-color="#383739"/>
<stop offset="0.42" stop-color="#535355"/>
<stop offset="0.58" stop-color="#6F7173"/>
<stop offset="0.76" stop-color="#919395"/>
<stop offset="0.93" stop-color="#BBBDBF"/>
<stop offset="1" stop-color="#CDCFD0"/>
</linearGradient>
<linearGradient id="paint19_linear_1_96" x1="21.6481" y1="111.918" x2="36.9989" y2="111.918" gradientUnits="userSpaceOnUse">
<stop stop-color="#3B81C3"/>
<stop offset="1" stop-color="#3B81C3"/>
</linearGradient>
<linearGradient id="paint20_linear_1_96" x1="41.2223" y1="91.9313" x2="41.2223" y2="115.089" gradientUnits="userSpaceOnUse">
<stop/>
<stop offset="1" stop-color="#3B81C3"/>
</linearGradient>
<linearGradient id="paint21_linear_1_96" x1="52.0466" y1="75.7811" x2="52.0466" y2="134.942" gradientUnits="userSpaceOnUse">
<stop stop-color="#3B81C3"/>
<stop offset="0.18" stop-color="#3A7EC0"/>
<stop offset="0.31" stop-color="#3679B9"/>
<stop offset="0.43" stop-color="#3071AE"/>
<stop offset="0.54" stop-color="#2765A0"/>
<stop offset="0.64" stop-color="#1B558C"/>
<stop offset="0.74" stop-color="#084375"/>
<stop offset="0.83" stop-color="#002D5B"/>
<stop offset="0.92" stop-color="#000F3C"/>
<stop offset="1"/>
</linearGradient>
<linearGradient id="paint22_linear_1_96" x1="28.0306" y1="42.233" x2="47.3776" y2="27.1017" gradientUnits="userSpaceOnUse">
<stop stop-color="#B1B3B6"/>
<stop offset="0.16" stop-color="#B1B3B6"/>
<stop offset="0.86"/>
<stop offset="1"/>
</linearGradient>
<linearGradient id="paint23_linear_1_96" x1="118.407" y1="103.238" x2="111.343" y2="115.671" gradientUnits="userSpaceOnUse">
<stop/>
<stop offset="1" stop-color="#939598"/>
</linearGradient>
<linearGradient id="paint24_linear_1_96" x1="94.4909" y1="-3.95974" x2="148.927" y2="42.0119" gradientUnits="userSpaceOnUse">
<stop stop-color="#CDCFD0"/>
<stop offset="0.46" stop-color="#D5D7D8"/>
<stop offset="1" stop-color="#D5D7D8"/>
</linearGradient>
<linearGradient id="paint25_linear_1_96" x1="123.313" y1="136.093" x2="137.741" y2="95.018" gradientUnits="userSpaceOnUse">
<stop/>
<stop offset="0.02" stop-color="#131313"/>
<stop offset="0.55" stop-color="#A5A7AA"/>
<stop offset="0.79" stop-color="#D5D7D8"/>
<stop offset="1" stop-color="#D5D7D8"/>
</linearGradient>
</defs>
</svg>
