<svg xmlns="http://www.w3.org/2000/svg" width="167.113" height="46.563"><path d="M54.671 35.249a11.966 11.966 0 10-11.966-11.967 11.967 11.967 0 0011.966 11.967" fill="#00a3e2"/><path d="M35.725 7.557L0 7.542v7.95h15.168l.018.005.016.007.017.008.015.01.015.011.013.012.012.014.01.014.01.015.009.016.007.017.005.017v24.635h8.655V15.644l.006-.017.024-.016v-.017l.01-.015.011-.015.012-.013.014-.012.014-.011.015-.01.016-.008.017-.007.017-.005h7.176l.311-.885v-.009l.4-1v-.008l.446-.98v-.009l.487-.956v-.008l.528-.931.005-.007.566-.906v-.007l.6-.879.006-.007.641-.851.006-.007z" fill="#36414e" fill-rule="evenodd"/><path d="M69.503 23.276v.012l-.01.34-.015.52v.035l-.052.606-.02.217v.007l-.07.482-.051.349v.012l-.154.752v.007l-.012.056v.011l-.211.8v.012l-.126.384-.1.316-.027.08v.011l-.3.76-.005.01-.016.037-.321.7-.005.01-.088.168-.288.548-.006.01-.414.692-.006.01-.45.667-.007.01-.056.074-.43.566-.007.009-.28.329-.24.282-.007.009-.552.582-.007.007-.582.552-.009.008-.612.519-.009.007-.32.243-.09.069-.231.174-.009.007-.667.451-.01.006-.692.414-.01.006-.462.242-.255.134-.01.005-.739.337h-.011l-.163.064-.177.069-.42.163h-.01l-.781.255h-.011l-.8.211h-.012l-.816.167h-.012l-.831.121h-.028l-.846.073h-.012l-.86.025h-.011l-.86-.025h-.011l-.846-.073h-.012l-.832-.121h-.012l-.816-.167h-.012l-.8-.211h-.012l-.78-.255h-.011l-.76-.3h-.011l-.74-.337-.01-.005-.716-.376-.009-.006-.693-.414-.01-.006-.667-.451-.009-.007-.64-.486-.009-.007-.612-.519-.008-.008-.573-.54-.008-.007-.552-.582-.008-.009-.519-.612-.007-.009-.486-.64-.006-.01-.451-.667-.006-.01-.414-.692-.005-.01-.376-.716-.005-.01-.337-.739v-.011l-.3-.76v-.011l-.255-.78v-.012l-.211-.8v-.011l-.167-.817v-.012l-.121-.831v-.012l-.074-.846v-.012l-.025-.86v-.012l.025-.86v-.012l.074-.846v-.012l.121-.831V20.7l.167-.817v-.011l.211-.8v-.011l.255-.781v-.011l.3-.76v-.01l.337-.739.005-.01.376-.716.005-.01.414-.692.006-.01.451-.667.006-.009.486-.64.007-.009.519-.612.008-.008.552-.582.008-.008.582-.552.008-.007.612-.52.009-.007.64-.486.005-.002.667-.45.01-.007.693-.414.009-.005.716-.377.01-.005.74-.337h.011l.76-.3h.011l.78-.255h.012l.451-.119.19-.05.1-.026.058-.015h.012l.289-.059.154-.031.091-.019.282-.058h.012l.832-.121h.012l.846-.073h.012l.86-.025h.011l.86.025h.012l.846.073h.012l.355.052.476.069h.012l.24.035.579.118h.012l.8.211h.011l.781.255h.01l.76.3h.011l.739.337.01.005.282.149.308.162.126.067.01.005.692.414.01.007.659.462.009.007.64.486.009.007.612.52.009.007.582.552.007.008.29.306.262.277.007.008.52.612.007.009.485.64.007.009.45.667.006.01.114.19.061.1.239.4.006.01.007.013.369.7.005.01.337.739.005.01.3.76v.011l.255.781v.011l.043.165.168.634v.011l.067.326.1.49v.012l.121.831v.012l.018.2.056.648v.011l.021.749zm8.449.006l-.023-1.069-.035-.515-.027-.4-.009-.133-.117-1.04-.118-.743-.045-.283-.206-1.01-.25-.994-.118-.4-.173-.58-.32-.918-.02-.04-.373-.938-.412-.918-.45-.9-.487-.874-.523-.85-.557-.826-.592-.8-.579-.717-.045-.056-.657-.746-.686-.716-.718-.687-.745-.656-.774-.625-.8-.592-.826-.558-.85-.523-.874-.487-.9-.45-.918-.412-.934-.37-.958-.333-.977-.292-.994-.25-1.01-.207L57.83.213 56.791.095 55.737.023 54.671 0l-1.066.023-1.054.072-1.041.118-1.025.162-1.01.207-.994.25-.976.292-.959.333-.938.373-.918.412-.9.45-.874.487-.85.523-.826.558-.8.592-.773.625-.746.656-.717.687-.688.716-.656.746-.625.773-.592.8-.558.826-.523.85-.487.874-.45.9-.412.918-.373.938-.334.959-.291.976-.25.994-.206 1.01-.163 1.026-.117 1.04-.068 1.047-.02 1.068.024 1.066.071 1.053.117 1.04.163 1.026.206 1.01.25.994.291.976.334.959.373.938.412.918.45.9.487.874.523.85.558.826.592.8.625.773.656.746.688.716.717.687.746.656.773.625.8.592.826.558.85.523.874.487.9.45.918.412.938.373.959.333.976.292.994.25 1.01.207 1.025.162 1.041.117 1.054.072 1.066.023 1.066-.023 1.053-.072 1.04-.117 1.025-.162 1.01-.207.994-.25.977-.292.958-.333.938-.373.918-.412.9-.45.874-.487.85-.523.277-.187.549-.37.1-.073.232-.172.37-.273.1-.074.774-.625.745-.656.718-.687.653-.682.034-.034.558-.634.1-.112.2-.252.24-.3.18-.222.165-.222.135-.184.155-.209.125-.183.006-.008.189-.281.362-.537.523-.85.255-.456.186-.334.047-.084.45-.9.2-.453.209-.465.11-.28.263-.659.32-.92.013-.038.291-.976.037-.147.213-.847.206-1.01.053-.329.11-.7.117-1.04.072-1.053.018-.808v-.1z" fill="#36414e"/><path d="M101.447 32.167H82.451l-.017-.005-.017-.012-.015-.009-.016-.009-.014-.011-.015-.012-.012-.013-.012-.014-.01-.015-.006-.011-.007-.017-.006-.017v-.108l.005-.018.007-.017.007-.016.01-.015.011-.015.012-.014.013-.012 5.629-4.981.425-.375.87-.77.863-.765.631-.558.641-.568.307-.271.225-.2 1.942-1.718.621-.55.33-.292.311-.275 1.466-1.3 4.664-4.127v-7.54h-27.7l.281.34.132.16.006.007.656.869.005.007.133.194.484.705.005.007.126.2.452.726.005.008.536.954.005.009.495.98v.009l.451 1v.008l.406 1.029v.009l.314.911h1.377l8.662-.007h.056l.017.005.017.007.016.008.015.01.014.011.013.012.012.013.01.015.01.015.008.016.006.017.006.018v.108l-.006.018-.007.016-.009.016-.009.015-.011.014-.012.013-.014.012-8.464 6.953-.094.077-.409.337v.033l-.018.774-.005.209v.01l-.028.415-.037.55-.009.134v.01l-.107.95-.015.135v.009l-.14.888-.029.181v.01l-.179.881-.035.173v.01l-.137.547-.1.386-.026.1v.009l-.133.447-.08.268-.025.085-.065.219v.009l-.345 1v.009l-.067.168-.321.812v.008l-.427.959v.008l-.2.4-.265.533v.007l-.506.913v.007l-.543.889v.007l-.579.863-.005.007-.614.836-.006.007-.105.131-.215.269-.086.108-.241.3-.006.007-.08.091-.576.659-.025.029-.007.007-.381.4h28.925v-8.077zm32.52-24.625h-29.6v32.731h29.6v-8.025H112.78l-.017-.005-.017-.007-.012-.019-.015-.01-.014-.011-.014-.012-.012-.013-.01-.015-.01-.015-.009-.016-.006-.017-.006-.017v-4.72l.006-.018.006-.017.009-.016.01-.015.01-.015.012-.013.014-.012.014-.011.015-.006.016-.009.017-.007.017-.006h18.921v-6.63H112.78l-.017-.005-.017-.007-.012-.015-.015-.01-.014-.012-.014-.012-.012-.013-.01-.015-.01-.015-.009-.016-.006-.017-.006-.017v-4.72l.006-.018.006-.017.009-.016.01-.015.01-.015.012-.013.014-.012.014-.011.015-.01.016-.008.017-.007.017-.006h21.187zm33.144 0h-8.03v21.19l-.006.018-.007.017-.009.015-.01.015-.012.014-.013.013-.013.012-.015.011-.014.01-.018.008-.016.007-.018.005h-.108l-.017-.006-.016-.007-.016-.009-.015-.01-.013-.011-.015-.012-.011-.013-.011-.015-14.48-21.252h-7.893v32.731h7.715v-20.72l.005-.017.007-.017.009-.016.01-.015.011-.014.012-.013.014-.012.015-.011.015-.01.015-.008.018-.007.018-.006h.107l.018.006.016.007.017.008.015.01.014.011.014.012.012.013.011.015.007.009.151.22 14.164 20.553h8.366z" fill="#36414e" fill-rule="evenodd"/></svg>